<svg xmlns="http://www.w3.org/2000/svg" width="36" height="36" viewBox="0 0 36 36" fill="none">
  <path fill-rule="evenodd" clip-rule="evenodd" d="M18 36C8.07568 36 0 27.9243 0 18C0 8.07568 8.07568 0 18 0C27.9243 0 36 8.07568 36 18C36 27.9243 27.9243 36 18 36Z" fill="#00B287"/>
  <g transform="translate(9,8)">
    <svg xmlns="http://www.w3.org/2000/svg" width="18" height="18" viewBox="0 0 18 18" fill="none">
        <path d="M9 1.5C13.1423 1.5 16.5 4.85775 16.5 9V14.25C16.5 14.8467 16.2629 15.419 15.841 15.841C15.419 16.2629 14.8467 16.5 14.25 16.5H12C11.8011 16.5 11.6103 16.421 11.4697 16.2803C11.329 16.1397 11.25 15.9489 11.25 15.75V11.25C11.25 11.0511 11.329 10.8603 11.4697 10.7197C11.6103 10.579 11.8011 10.5 12 10.5H15.375V9C15.375 7.30925 14.7034 5.68774 13.5078 4.49219C12.3123 3.29665 10.6908 2.625 9 2.625C7.30925 2.625 5.68774 3.29665 4.49219 4.49219C3.29665 5.68774 2.625 7.30925 2.625 9V10.5H6C6.19891 10.5 6.38968 10.579 6.53033 10.7197C6.67098 10.8603 6.75 11.0511 6.75 11.25V15.75C6.75 15.9489 6.67098 16.1397 6.53033 16.2803C6.38968 16.421 6.19891 16.5 6 16.5H3.75C3.15326 16.5 2.58097 16.2629 2.15901 15.841C1.73705 15.419 1.5 14.8467 1.5 14.25V9C1.5 4.85775 4.85775 1.5 9 1.5Z" fill="white"/>
    </svg>
  </g>
</svg>