<?xml version="1.0" encoding="UTF-8"?>
<!DOCTYPE svg PUBLIC "-//W3C//DTD SVG 1.1//EN" "http://www.w3.org/Graphics/SVG/1.1/DTD/svg11.dtd">
<svg xmlns="http://www.w3.org/2000/svg" xml:space="preserve" width="42.3332mm" height="42.3332mm" version="1.1" style="shape-rendering:geometricPrecision; text-rendering:geometricPrecision; image-rendering:optimizeQuality; fill-rule:evenodd; clip-rule:evenodd"
viewBox="0 0 4233.32 4233.32"
 xmlns:xlink="http://www.w3.org/1999/xlink"
 enable-background="new 0 0 64 64">
 <defs>
  <style type="text/css">
   <![CDATA[
    .fil0 {fill:#3A3285}
   ]]>
  </style>
 </defs>
 <g id="Layer_x0020_1">
  <metadata id="CorelCorpID_0Corel-Layer"/>
  <g id="_105553310610848">
  </g>
  <g id="_105553310609728">
  </g>
  <g id="_105553310597632">
  </g>
  <g id="_105553310611552">
  </g>
  <g id="_105553310688896">
  </g>
  <g id="_105553310693888">
  </g>
  <g id="_105553310694528">
  </g>
  <g id="_105553310688832">
  </g>
  <g id="_105553310680288">
  </g>
  <g id="_105553310689312">
  </g>
  <g id="_105553310688160">
  </g>
  <g id="_105553310679040">
  </g>
  <g id="_105553310693472">
  </g>
  <g id="_105553310692320">
  </g>
  <g id="_105553310688672">
  </g>
  <path class="fil0" d="M3650.24 1067.14c-0.2,0 -0.39,-0.02 -0.59,-0.02l-865.08 0 0 -95.42c0,-157.83 -128.41,-286.24 -286.24,-286.24l-763.31 0c-157.83,0 -286.24,128.41 -286.24,286.24l0 95.41 -865.08 0.01c-53.12,0 -95.41,43.53 -95.41,95.41l0 2099.09c0,157.83 128.41,286.24 286.24,286.24l2684.29 0c157.83,0 286.24,-128.41 286.24,-286.24l0 -2097.08c0,-0.12 0,-0.24 0,-0.37 -3.65,-62.66 -42.19,-96.68 -94.82,-97.03l0 0zm-2010.63 -95.44c0,-52.6 42.81,-95.41 95.41,-95.41l763.31 0c52.6,0 95.41,42.81 95.41,95.41l0 95.41 -954.13 0.01 0 -95.42zm1877.65 286.24l-296.3 888.89c-13,39.03 -49.37,65.24 -90.49,65.24l-536.73 0 0 -95.41c0,-52.7 -42.71,-95.41 -95.41,-95.41l-763.31 0c-52.7,0 -95.41,42.71 -95.41,95.41l0 95.41 -536.73 0c-41.12,0 -77.49,-26.21 -90.49,-65.24l-296.3 -888.89 2801.17 0zm-1114.35 954.13l0 190.83 -572.47 0 0 -190.83 572.47 0zm1151.32 1049.55c0,52.6 -42.81,95.41 -95.41,95.41l-2684.29 0c-52.6,0 -95.41,-42.81 -95.41,-95.41l0 -1511.13 152.24 456.69c39.01,117.08 148.13,195.72 271.52,195.72l536.73 0 0 95.41c0,52.7 42.71,95.42 95.41,95.42l763.31 0c52.7,0 95.41,-42.71 95.41,-95.42l0 -95.41 536.73 0c123.39,0 232.52,-78.64 271.52,-195.72l152.24 -456.69 0 1511.13zm0 0z"/>
 </g>
</svg>
