<?xml version="1.0" encoding="UTF-8"?>
<!DOCTYPE svg PUBLIC "-//W3C//DTD SVG 1.1//EN" "http://www.w3.org/Graphics/SVG/1.1/DTD/svg11.dtd">
<svg xmlns="http://www.w3.org/2000/svg" xml:space="preserve" width="42.3332mm" height="42.3332mm" version="1.1" style="shape-rendering:geometricPrecision; text-rendering:geometricPrecision; image-rendering:optimizeQuality; fill-rule:evenodd; clip-rule:evenodd"
viewBox="0 0 4233.32 4233.32"
 xmlns:xlink="http://www.w3.org/1999/xlink">
 <defs>
  <style type="text/css">
   <![CDATA[
    .fil0 {fill:#3A3285}
   ]]>
  </style>
 </defs>
 <g id="Layer_x0020_1">
  <metadata id="CorelCorpID_0Corel-Layer"/>
  <g id="_105553244916256">
   <g>
    <g>
     <path class="fil0" d="M3190.44 1387.81c37.53,0 67.96,-30.43 67.96,-67.96l0 -739.05c0,-112.41 -91.46,-203.87 -203.88,-203.87l-2473.67 0c-112.41,0 -203.87,91.46 -203.87,203.87l0 3071.71c0,112.41 91.46,203.87 203.87,203.87l2473.67 0c112.42,0 203.88,-91.46 203.88,-203.87l0 -500.66c0,-37.54 -30.43,-67.96 -67.96,-67.96 -37.53,0 -67.96,30.42 -67.96,67.96l0 500.66c0,37.47 -30.48,67.95 -67.96,67.95l-2473.67 0c-37.47,0 -67.95,-30.48 -67.95,-67.95l0 -3071.71c0,-37.47 30.48,-67.95 67.95,-67.95l2473.67 0c37.48,0 67.96,30.48 67.96,67.95l0 739.05c0,37.53 30.43,67.96 67.96,67.96z"/>
    </g>
   </g>
   <g>
    <g>
     <path class="fil0" d="M1817.69 743.9c-344.74,0 -625.21,280.47 -625.21,625.22 0,178.84 75.5,340.37 196.27,454.42 2.26,2.42 4.67,4.71 7.3,6.8 111.25,101.8 259.31,163.98 421.63,163.98 162.32,0 310.38,-62.19 421.63,-163.98 2.63,-2.08 5.04,-4.38 7.3,-6.8 120.79,-114.06 196.29,-275.58 196.29,-454.42 0,-344.75 -280.47,-625.22 -625.21,-625.22zm0 1114.52c-110.97,0 -213.38,-37.19 -295.56,-99.69 59.73,-105.91 171.19,-172.15 295.56,-172.15 124.37,0 235.83,66.24 295.56,172.15 -82.19,62.5 -184.59,99.69 -295.56,99.69zm-108.73 -516.49l0 -44.17c0,-59.95 48.78,-108.73 108.73,-108.73 59.95,0 108.73,48.78 108.73,108.73l0 44.17c0,59.96 -48.78,108.74 -108.73,108.74 -59.95,0 -108.73,-48.78 -108.73,-108.74zm502.48 317.25c-50.12,-74.33 -119.58,-132.14 -200.23,-167.83 32.01,-41.37 51.13,-93.19 51.13,-149.42l0 -44.17c0,-134.9 -109.75,-244.65 -244.65,-244.65 -134.9,0 -244.65,109.75 -244.65,244.65l0 44.17c0,56.23 19.12,108.05 51.13,149.42 -80.65,35.69 -150.11,93.5 -200.23,167.83 -60,-81.23 -95.55,-181.55 -95.55,-290.06 0,-269.8 219.5,-489.3 489.3,-489.3 269.8,0 489.3,219.5 489.3,489.3 0,108.51 -35.55,208.83 -95.55,290.06z"/>
    </g>
   </g>
   <g>
    <g>
     <path class="fil0" d="M2184.66 3353.49l-366.97 0c-37.53,0 -67.96,30.43 -67.96,67.96 0,37.53 30.43,67.96 67.96,67.96l366.97 0c37.53,0 67.96,-30.43 67.96,-67.96 0,-37.53 -30.43,-67.96 -67.96,-67.96z"/>
    </g>
   </g>
   <g>
    <g>
     <path class="fil0" d="M2184.66 2972.93l-965 0c-37.53,0 -67.96,30.42 -67.96,67.95 0,37.54 30.43,67.96 67.96,67.96l965 0c37.53,0 67.96,-30.42 67.96,-67.96 0,-37.53 -30.43,-67.95 -67.96,-67.95z"/>
    </g>
   </g>
   <g>
    <g>
     <path class="fil0" d="M2184.66 2592.36l-965 0c-37.53,0 -67.96,30.43 -67.96,67.96 0,37.53 30.43,67.96 67.96,67.96l965 0c37.53,0 67.96,-30.43 67.96,-67.96 0,-37.53 -30.43,-67.96 -67.96,-67.96z"/>
    </g>
   </g>
   <g>
    <g>
     <path class="fil0" d="M977.45 2231.71c-12.63,-12.64 -30.17,-19.91 -48.11,-19.91 -17.88,0 -35.41,7.27 -48.04,19.91 -12.64,12.64 -19.92,30.17 -19.92,48.04 0,17.88 7.27,35.41 19.92,48.05 12.7,12.64 30.16,19.91 48.04,19.91 17.94,0 35.41,-7.27 48.11,-19.91 12.64,-12.64 19.92,-30.17 19.92,-48.05 0,-17.87 -7.27,-35.4 -19.92,-48.04z"/>
    </g>
   </g>
   <g>
    <g>
     <path class="fil0" d="M977.45 2612.27c-12.7,-12.64 -30.17,-19.91 -48.11,-19.91 -17.88,0 -35.34,7.27 -48.04,19.91 -12.64,12.64 -19.92,30.18 -19.92,48.05 0,17.87 7.27,35.41 19.92,48.05 12.7,12.64 30.16,19.91 48.04,19.91 17.94,0 35.41,-7.27 48.11,-19.91 12.64,-12.64 19.92,-30.18 19.92,-48.05 0,-17.87 -7.27,-35.41 -19.92,-48.05z"/>
    </g>
   </g>
   <g>
    <g>
     <path class="fil0" d="M977.45 2992.84c-12.7,-12.64 -30.17,-19.92 -48.11,-19.92 -17.88,0 -35.34,7.28 -48.04,19.92 -12.64,12.64 -19.92,30.17 -19.92,48.04 0,17.88 7.27,35.41 19.92,48.05 12.63,12.64 30.16,19.91 48.04,19.91 17.94,0 35.48,-7.27 48.11,-19.91 12.64,-12.64 19.92,-30.17 19.92,-48.05 0,-17.87 -7.27,-35.4 -19.92,-48.04z"/>
    </g>
   </g>
   <g>
    <g>
     <path class="fil0" d="M2184.66 2211.8l-965 0c-37.53,0 -67.96,30.42 -67.96,67.96 0,37.53 30.43,67.95 67.96,67.95l965 0c37.53,0 67.96,-30.42 67.96,-67.96 0,-37.53 -30.43,-67.95 -67.96,-67.95z"/>
    </g>
   </g>
   <g>
    <g>
     <path class="fil0" d="M3713.68 1262.56c-66.02,-38.12 -142.93,-48.24 -216.59,-28.52 -73.64,19.74 -135.19,66.97 -173.3,132.99l-855.2 1481.23c-4.68,8.12 -7.64,17.13 -8.68,26.45l-60.2 539.2c-2.99,26.83 10.18,52.89 33.56,66.4 10.55,6.09 22.27,9.1 33.97,9.1 14.22,0 28.38,-4.45 40.3,-13.24l436.87 -321.74c7.55,-5.55 13.87,-12.62 18.55,-20.74l855.19 -1481.23c78.69,-136.29 31.83,-311.2 -104.47,-389.9zm-1161.66 2012.06l31.43 -281.56 196.69 113.55 -228.12 168.01zm327.21 -267.74l-258.95 -149.51 686.27 -1188.65 258.96 149.5 -686.28 1188.66zm821.22 -1422.38l-66.99 116.02 -258.95 -149.51 66.98 -116.02c19.97,-34.58 52.21,-59.32 90.78,-69.66 38.59,-10.34 78.87,-5.03 113.45,14.94 34.58,19.97 59.32,52.2 69.66,90.78 10.33,38.57 5.03,78.86 -14.93,113.45z"/>
    </g>
   </g>
   <g>
   </g>
   <g>
   </g>
   <g>
   </g>
   <g>
   </g>
   <g>
   </g>
   <g>
   </g>
   <g>
   </g>
   <g>
   </g>
   <g>
   </g>
   <g>
   </g>
   <g>
   </g>
   <g>
   </g>
   <g>
   </g>
   <g>
   </g>
   <g>
   </g>
  </g>
 </g>
</svg>
