<?xml version="1.0" encoding="UTF-8"?>
<!DOCTYPE svg PUBLIC "-//W3C//DTD SVG 1.1//EN" "http://www.w3.org/Graphics/SVG/1.1/DTD/svg11.dtd">
<!-- Creator: CorelDRAW (Evaluation Version) -->
<svg xmlns="http://www.w3.org/2000/svg" xml:space="preserve" width="42.3332mm" height="42.3332mm" version="1.1" style="shape-rendering:geometricPrecision; text-rendering:geometricPrecision; image-rendering:optimizeQuality; fill-rule:evenodd; clip-rule:evenodd"
viewBox="0 0 4233.32 4233.32"
 xmlns:xlink="http://www.w3.org/1999/xlink">
 <defs>
  <style type="text/css">
   <![CDATA[
    .fil0 {fill:#3A3285}
   ]]>
  </style>
 </defs>
 <g id="Layer_x0020_1">
  <metadata id="CorelCorpID_0Corel-Layer"/>
  <g id="_105553244463552">
   <path class="fil0" d="M2608.3 3373.01l0 -109.25c32.23,0 64.08,-4.64 94.61,-13.82l31.47 104.61c-40.75,12.23 -83.2,18.46 -126.08,18.46z"/>
   <path class="fil0" d="M2849.3 3300.58l-60.3 -91.06c92.1,-61.02 147.05,-163.22 147.05,-273.51 0,-180.75 -147,-327.74 -327.75,-327.74l0 -109.24c240.95,0 436.99,196.04 436.99,436.98 0,147 -73.25,283.28 -195.99,364.56l0 0.01z"/>
   <path class="fil0" d="M1898.19 1188.06c-150.6,0 -273.11,-122.53 -273.11,-273.12 0,-150.6 122.52,-273.12 273.11,-273.12 150.6,0 273.12,122.52 273.12,273.12 0,150.59 -122.52,273.12 -273.12,273.12zm0 -437c-90.35,0 -163.87,73.53 -163.87,163.87 0,90.35 73.52,163.88 163.87,163.88 90.35,0 163.88,-73.53 163.88,-163.88 0,-90.34 -73.53,-163.87 -163.88,-163.87z"/>
   <polygon class="fil0" points="2444.43,641.82 2772.18,641.82 2772.18,751.06 2444.43,751.06 "/>
   <polygon class="fil0" points="2444.43,860.31 2772.18,860.31 2772.18,969.56 2444.43,969.56 "/>
   <polygon class="fil0" points="2444.43,1078.81 2772.18,1078.81 2772.18,1188.05 2444.43,1188.06 "/>
   <polygon class="fil0" points="2444.43,1297.3 2772.18,1297.3 2772.18,1406.55 2444.43,1406.55 "/>
   <path class="fil0" d="M1898.19 1078.81c-240.94,0 -436.99,196.04 -436.99,436.99l0 109.24 873.99 0.01 0 -109.25c0,-240.95 -196.05,-436.99 -436.99,-436.99l-0.01 0zm-327.74 436.99c0,-180.75 146.99,-327.74 327.74,-327.74 180.75,0 327.75,146.99 327.75,327.74l-655.49 0z"/>
   <polygon class="fil0" points="1461.2,2553.65 1915.24,2553.65 1915.24,2444.4 1570.45,2444.4 1570.45,1843.54 2662.93,1843.54 2662.93,2123.98 2772.18,2123.98 2772.18,1734.29 1461.2,1734.29 "/>
   <path class="fil0" d="M2990.67 764.12l0 -340.8 -1747.96 0 0 340.8 -829.57 176.32 366.14 1722.46 -82.81 0c-150.6,0 -273.12,122.52 -273.12,273.12 0,150.59 122.52,273.12 273.12,273.12l819.36 0 0 -109.25 281.2 0 0 -109.25 -281.2 0 0 -109.24 281.2 -0.01 0 -109.24 -281.2 0 0 -109.25 -163.87 0 0 -2130.33 1529.46 0 0 1652.37 109.25 0 0 -1309.12 699.9 148.8 -343.37 1615.61 -10.49 46.65 106.58 23.98 376.9 -1770.36 -829.52 -176.38zm-1984.05 930.13c47.69,-73.41 121.11,-123.88 206.76,-142.07 9.5,-2.03 19.44,-3.12 29.33,-4.21l0 333.04 -281.75 59.92c-18.25,-85.65 -1.97,-173.26 45.66,-246.68l0 0zm60.69 -271.75c-36.71,-23.87 -61.94,-60.52 -71.01,-103.4 -9.12,-42.83 -1.04,-86.58 22.83,-123.29 23.87,-36.71 60.53,-61.94 103.35,-71.07 41.51,-8.79 84.07,0.11 120.23,23.05l0 274.38c-16.5,10.71 -33.65,19.28 -52.06,23.16 -42.88,9.07 -86.63,0.98 -123.34,-22.83l0 0zm-524.5 -397.93l699.9 -148.75 0 150.82c-45.61,-15.51 -94.66,-19.06 -142.95,-8.74 -71.34,15.18 -132.52,57.19 -172.23,118.37 -39.71,61.18 -53.26,134.21 -38.07,205.49 15.13,71.4 57.24,132.58 118.42,172.29 4.48,2.89 9.23,5.02 13.82,7.65 -41.4,30.69 -77.73,68.49 -106.62,113.01 -63.59,97.89 -85.27,214.67 -60.96,328.84l22.61 106.95 365.98 -77.84 0 111.71 -343.26 72.97 103.19 485.56 -111.66 0 -348.17 -1638.33zm863.77 2075.32l-710.11 0c-90.35,0 -163.87,-73.52 -163.87,-163.87 0,-90.35 73.52,-163.87 163.87,-163.87l710.11 0 0 327.74zm-292.18 -436.99l-85.32 -401.43 213.63 -45.4 0 446.83 -128.31 0z"/>
   <polygon class="fil0" points="2444.43,1515.8 2772.18,1515.8 2772.18,1625.05 2444.43,1625.05 "/>
   <polygon class="fil0" points="3217.88,1147.92 3240.61,1041.07 3561.14,1109.24 3538.42,1216.09 "/>
   <polygon class="fil0" points="3172.43,1361.69 3195.15,1254.85 3515.68,1323.02 3492.96,1429.87 "/>
   <polygon class="fil0" points="3126.92,1575.36 3149.64,1468.52 3470.12,1536.68 3447.4,1643.52 "/>
   <polygon class="fil0" points="3081.53,1789.13 3104.25,1682.28 3424.79,1750.45 3402.06,1857.3 "/>
   <polygon class="fil0" points="3036.08,2002.85 3058.8,1896 3379.33,1964.17 3356.61,2071.02 "/>
   <path class="fil0" d="M2608.3 3810c-481.89,0 -873.98,-392.09 -873.98,-873.98 0,-481.9 392.09,-873.98 873.98,-873.98 481.9,0 873.99,392.08 873.99,873.98 0,481.89 -392.09,873.98 -873.99,873.98zm0 -1474.84c-331.29,0 -600.86,269.57 -600.86,600.86 0,331.29 269.57,600.86 600.86,600.86 331.3,0 600.87,-269.57 600.87,-600.86 0,-331.29 -269.57,-600.86 -600.87,-600.86z"/>
   <path class="fil0" d="M2608.3 3591.5c-361.44,0 -655.48,-294.04 -655.48,-655.48 0,-361.45 294.04,-655.49 655.48,-655.49 361.45,0 655.49,294.04 655.49,655.49 0,361.44 -294.04,655.48 -655.49,655.48zm0 -1201.72c-301.19,0 -546.23,245.04 -546.23,546.24 0,301.19 245.04,546.24 546.23,546.24 301.2,0 546.24,-245.05 546.24,-546.24 0,-301.2 -245.04,-546.24 -546.24,-546.24z"/>
  </g>
 </g>
</svg>
