<svg fill="none" xmlns="http://www.w3.org/2000/svg" viewBox="0 0.5 838 554.11"> <g clip-path="url(#clip0_437_3271)"> <path d="M225.34 554.5C248.511 550.872 270.788 547.786 292.174 545.242L283.939 528.77C286.797 527.817 299.184 537.346 299.184 537.346L288.703 489.699C302.995 491.605 309.665 540.205 309.665 540.205L325.862 524.005L317.889 542.347C383.329 535.47 439.798 533.323 487.267 533.816L480.218 519.717C483.077 518.764 495.463 528.293 495.463 528.293L484.982 480.646C499.275 482.552 505.944 531.152 505.944 531.152L522.142 514.952L513.697 534.379C546.212 535.324 578.658 537.937 610.905 542.208C603.872 520.294 579.311 499.228 579.311 499.228C598.196 505.105 608.021 514.678 613.107 523.552C614.135 478.531 607.21 433.682 592.65 391.068C592.65 391.068 630.763 476.834 625.046 534.011L624.321 544.168C657.478 549.341 674.116 554.5 674.116 554.5H225.34Z" fill="#3F3D56"/> <path d="M440.429 17.9451H473.529C474.867 17.9451 475.951 19.0296 475.951 20.3674V23.2287C475.951 24.5665 474.867 25.6511 473.529 25.6511H440.429C439.091 25.6511 438.007 24.5665 438.007 23.2287V20.3674C438.007 19.0296 439.091 17.9451 440.429 17.9451Z" fill="#E6E8EC"/> <path d="M427.899 26.1689C425.486 26.1689 423.529 24.212 423.529 21.798C423.529 19.384 425.486 17.4271 427.899 17.4271C430.313 17.4271 432.27 19.384 432.27 21.798C432.27 24.212 430.313 26.1689 427.899 26.1689Z" fill="#E6E8EC"/> <path opacity="0.3" d="M330.665 452.848V521.613C330.662 524.736 331.338 527.823 332.648 530.658C333.958 533.494 335.869 536.01 338.249 538.032C342.153 541.361 347.116 543.188 352.246 543.188H547.239C550.709 543.193 554.128 542.359 557.206 540.758C557.929 540.387 558.629 539.974 559.302 539.519C562.233 537.541 564.633 534.875 566.293 531.753C567.952 528.631 568.82 525.149 568.821 521.613V452.876C536.124 423.481 493.713 407.216 449.748 407.211C405.783 407.206 363.369 423.46 330.665 452.848Z" fill="white"/> <path opacity="0.3" d="M342.26 540.739C345.34 542.356 348.767 543.197 352.246 543.188H547.239C550.709 543.193 554.128 542.36 557.206 540.758C548.378 519.524 533.46 501.381 514.335 488.617C495.209 475.853 472.732 469.041 449.739 469.039C426.747 469.037 404.268 475.845 385.14 488.606C366.012 501.366 351.092 519.507 342.26 540.739Z" fill="white"/> <path opacity="0.3" d="M384.699 541.891C386.562 542.87 388.636 543.379 390.741 543.373H508.736C510.836 543.377 512.905 542.872 514.767 541.903C509.426 529.054 500.399 518.075 488.825 510.351C477.252 502.628 463.65 498.505 449.737 498.504C435.823 498.503 422.221 502.623 410.646 510.344C399.072 518.066 390.043 529.043 384.699 541.891Z" fill="white"/> <path d="M400.138 205.623C419.698 205.623 441.164 201.898 457.922 189.328C481.254 171.826 510 172.76 530.006 176.626C543.295 179.216 556.193 183.513 568.38 189.41L569.261 187.72C556.925 181.746 543.869 177.392 530.417 174.765C510.018 170.816 480.683 169.873 456.779 187.803C411.997 221.394 331.81 191.225 331.006 190.917L330.323 192.696C345.36 198.057 360.913 201.844 376.731 203.995C384.489 205.054 392.308 205.598 400.138 205.623Z" fill="white"/> <path opacity="0.3" d="M568.83 188.565C568.83 188.565 503.086 172.639 457.351 194.445C411.616 216.251 330.627 194.283 330.627 194.283" fill="white"/> <path opacity="0.3" d="M506.763 213.305C514.705 213.269 522.625 212.478 530.417 210.943C543.869 208.316 556.925 203.961 569.261 197.987L568.38 196.297C556.193 202.194 543.295 206.491 530.006 209.081C510.001 212.947 481.255 213.881 457.922 196.38C434.039 178.464 400.585 178.515 376.731 181.712C360.913 183.864 345.36 187.65 330.323 193.011L331.006 194.79C331.811 194.482 411.996 164.312 456.779 197.904C472.455 209.663 490.468 213.305 506.763 213.305Z" fill="white"/> <path opacity="0.3" d="M506.439 205.631C539.439 205.631 568.744 193.79 569.184 193.609L568.458 191.847C567.806 192.116 502.629 218.434 457.836 191.908C412.268 164.921 331.202 189.01 330.388 189.257L330.941 191.081C331.746 190.837 412.019 166.989 456.865 193.548C472.17 202.612 489.776 205.631 506.439 205.631Z" fill="white"/> <path opacity="0.3" d="M568.821 191.262C568.821 191.262 503.086 213.068 457.351 191.262C411.616 169.457 330.665 189.202 330.665 189.202" fill="white"/> <path opacity="0.3" d="M568.821 188.565C568.821 188.565 503.086 154.259 457.351 188.565C411.616 222.872 330.665 191.807 330.665 191.807" fill="white"/> <path d="M449.49 537.656C443.702 537.656 439.009 532.963 439.009 527.173C439.009 521.384 443.702 516.691 449.49 516.691C455.278 516.691 459.971 521.384 459.971 527.173C459.971 532.963 455.278 537.656 449.49 537.656Z" fill="white"/> <path d="M320.782 73.0769H320.274C318.625 73.0769 317.288 73.989 317.288 75.1142V92.4264C317.288 93.5515 318.625 94.4637 320.274 94.4637H320.782C322.431 94.4637 323.768 93.5515 323.768 92.4264V75.1142C323.768 73.989 322.431 73.0769 320.782 73.0769Z" fill="#3A3768"/> <path d="M322.267 113.919H320.733C318.83 113.919 317.288 114.919 317.288 116.153V152.513C317.288 153.747 318.83 154.748 320.733 154.748H322.267C324.17 154.748 325.712 153.747 325.712 152.513V116.153C325.712 114.919 324.17 113.919 322.267 113.919Z" fill="#3A3768"/> <path d="M320.984 167.051H320.072C318.535 167.051 317.288 167.996 317.288 169.161V203.826C317.288 204.991 318.535 205.936 320.072 205.936H320.984C322.521 205.936 323.768 204.991 323.768 203.826V169.161C323.768 167.996 322.521 167.051 320.984 167.051Z" fill="#3A3768"/> <path d="M559.306 0.499512H357.797C337.931 0.499512 321.826 16.5569 321.826 36.3647V518.746C321.826 538.554 337.931 554.611 357.797 554.611H559.306C579.173 554.611 595.277 538.554 595.277 518.746V36.3647C595.277 16.5569 579.173 0.499512 559.306 0.499512Z" fill="#3F3D56"/> <path d="M465.527 17.3527H436.025C434.151 17.3527 432.632 19.2242 432.632 21.5328V22.2457C432.632 24.5543 434.151 26.4258 436.025 26.4258H465.527C467.4 26.4258 468.919 24.5543 468.919 22.2457V21.5328C468.919 19.2242 467.4 17.3527 465.527 17.3527Z" fill="#E6E8EC"/> <path d="M479.621 26.4258C481.947 26.4258 483.833 24.3947 483.833 21.8893C483.833 19.3838 481.947 17.3527 479.621 17.3527C477.295 17.3527 475.409 19.3838 475.409 21.8893C475.409 24.3947 477.295 26.4258 479.621 26.4258Z" fill="#E6E8EC"/> <path d="M556.714 15.4014H525.424V19.1568C525.424 23.8762 523.539 28.4024 520.184 31.7395C516.83 35.0767 512.28 36.9514 507.536 36.9514H407.683C402.938 36.9514 398.388 35.0767 395.034 31.7395C391.679 28.4024 389.794 23.8762 389.794 19.1568V15.4014H360.405C357.552 15.4014 354.727 15.9605 352.092 17.0468C349.456 18.1332 347.061 19.7254 345.045 21.7326C343.028 23.7398 341.428 26.1226 340.337 28.745C339.246 31.3673 338.685 34.1777 338.687 37.0157V518.086C338.685 520.924 339.246 523.735 340.337 526.357C341.428 528.979 343.028 531.362 345.045 533.37C347.061 535.377 349.456 536.969 352.092 538.055C354.727 539.142 357.552 539.701 360.405 539.701H556.714C562.477 539.701 568.004 537.424 572.078 533.37C576.153 529.317 578.442 523.819 578.442 518.086V37.0157C578.442 31.2832 576.153 25.7855 572.078 21.7321C568.004 17.6786 562.477 15.4014 556.714 15.4014Z" fill="white"/> <path opacity="0.1" d="M757.923 379.361C757.914 395.841 754.325 412.123 747.406 427.082C740.487 442.042 730.402 455.324 717.846 466.012C705.291 476.699 690.564 484.537 674.683 488.986C658.801 493.435 642.142 494.388 625.856 491.779H445.206C438.228 492.736 431.194 493.216 424.151 493.216C419.095 493.216 414.1 492.975 409.166 492.493C371.202 488.81 335.974 471.127 310.354 442.894C284.734 414.662 270.561 377.904 270.599 339.795C270.599 255.06 339.349 186.374 424.151 186.374C492.449 186.374 550.323 230.929 570.267 292.536C590.841 275.048 616.982 265.464 643.993 265.506C706.907 265.506 757.923 316.48 757.923 379.361Z" fill="#4450B9"/> <path opacity="0.1" d="M713.537 469.059C701.184 478.706 686.975 485.702 671.797 489.611C656.619 493.519 640.798 494.257 625.322 491.776H444.834C437.862 492.733 430.834 493.213 423.798 493.213C418.746 493.213 413.756 492.972 408.826 492.49C378.935 489.558 350.561 477.92 327.219 459.017C303.878 440.113 286.594 414.777 277.51 386.145C292.206 354.74 329.96 332.392 374.225 332.392C417.359 332.392 454.332 353.618 469.762 383.765C477.361 382.383 485.068 381.69 492.791 381.695C537.498 381.695 575.563 404.506 589.935 436.383C601.841 432.774 614.216 430.953 626.657 430.981C663.119 430.998 695.166 446.158 713.537 469.059Z" fill="#4450B9"/> <path d="M420.542 473.05C420.542 484.027 416.363 489.987 409.519 493.218C383.739 490.709 359.016 481.629 337.677 466.833C338.224 463.1 339.272 459.461 340.793 456.014L360.258 462.115L342.923 451.832C345.267 447.798 348.263 444.186 351.786 441.146L384.489 451.395L358.868 436.227C364.144 433.313 369.983 431.585 375.985 431.162C381.986 430.739 388.007 431.632 393.633 433.778C399.26 435.924 404.359 439.273 408.579 443.594C412.799 447.916 416.04 453.107 418.08 458.812L418.17 459.069C418.238 459.261 418.306 459.454 418.369 459.651C418.599 460.334 418.81 461.024 419.003 461.721C419.075 461.969 419.143 462.218 419.203 462.471C419.262 462.723 419.326 462.951 419.381 463.191C419.436 463.43 419.483 463.619 419.526 463.816C419.556 463.945 419.585 464.073 419.611 464.202C419.658 464.407 419.7 464.63 419.738 464.823C419.798 465.123 419.857 465.427 419.908 465.727C419.959 466.027 420.015 466.353 420.061 466.665C420.108 466.978 420.163 467.36 420.206 467.711C420.248 468.062 420.282 468.336 420.312 468.649C420.312 468.748 420.333 468.842 420.342 468.941C420.372 469.215 420.393 469.489 420.414 469.763C420.416 469.799 420.416 469.835 420.414 469.87C420.44 470.213 420.461 470.556 420.478 470.899C420.495 471.241 420.508 471.576 420.516 471.901C420.518 471.934 420.518 471.967 420.516 472C420.537 472.343 420.542 472.694 420.542 473.05Z" fill="#4450B9"/> <path opacity="0.1" d="M422.512 468.799C422.512 480.474 417.99 486.813 410.583 490.249C392.539 488.528 374.905 483.872 358.391 476.468L359.145 475.972C362.555 473.734 366.079 471.446 370.091 470.685C373.62 470.015 377.259 470.58 380.843 470.38C387.082 470.001 392.955 467.335 397.318 462.901C399.881 460.276 401.919 457.055 404.979 455.049C408.301 452.889 412.515 452.424 416.453 452.962C417.597 453.127 418.731 453.357 419.849 453.65L419.945 453.924C420.019 454.129 420.092 454.334 420.161 454.543C420.41 455.27 420.638 456.003 420.847 456.745C420.925 457.009 420.999 457.273 421.063 457.542C421.128 457.811 421.197 458.053 421.256 458.308C421.316 458.563 421.367 458.763 421.413 458.973C421.445 459.11 421.477 459.247 421.505 459.383C421.555 459.602 421.601 459.839 421.643 460.044C421.707 460.363 421.772 460.687 421.827 461.006C421.882 461.325 421.942 461.671 421.993 462.004C422.043 462.336 422.103 462.742 422.149 463.116C422.195 463.489 422.232 463.781 422.264 464.114C422.264 464.218 422.287 464.319 422.296 464.424C422.328 464.715 422.351 465.007 422.374 465.299C422.377 465.337 422.377 465.375 422.374 465.412C422.402 465.777 422.425 466.142 422.443 466.506C422.462 466.871 422.476 467.226 422.485 467.573C422.487 467.608 422.487 467.643 422.485 467.677C422.508 468.047 422.512 468.42 422.512 468.799Z" fill="black"/> <path opacity="0.1" d="M396.866 298.618C396.259 298.263 395.441 298.618 395.023 299.18C394.653 299.794 394.434 300.49 394.384 301.21C394.153 302.78 393.978 304.582 395.023 305.756C394.133 303.134 392.539 300.818 390.424 299.074C388.308 297.33 385.755 296.227 383.055 295.89" stroke="#4450B9" stroke-width="3" stroke-miterlimit="10"/> <path opacity="0.1" d="M508.915 513.933C553.862 513.933 590.3 511.282 590.3 508.013C590.3 504.744 553.862 502.093 508.915 502.093C463.967 502.093 427.53 504.744 427.53 508.013C427.53 511.282 463.967 513.933 508.915 513.933Z" fill="#4450B9"/> <path opacity="0.1" d="M513.344 352.885C512.737 352.525 511.918 352.885 511.501 353.447C511.132 354.06 510.912 354.755 510.861 355.472C510.63 357.047 510.456 358.849 511.501 360.019C510.612 357.396 509.018 355.08 506.902 353.336C504.787 351.591 502.233 350.489 499.533 350.153" stroke="#4450B9" stroke-width="3" stroke-miterlimit="10"/> <path d="M466.32 491.223C466.892 492.305 467.969 492.97 469.006 493.559C476.208 497.688 483.796 501.104 491.663 503.758C491.859 503.872 492.078 503.94 492.303 503.957C492.529 503.975 492.756 503.941 492.967 503.859C493.178 503.778 493.368 503.649 493.523 503.484C493.678 503.319 493.794 503.121 493.862 502.905C494.767 501.382 495.758 498.897 495.523 496.887C496.267 496.435 496.807 495.713 497.029 494.871C497.339 493.848 497.811 492.881 498.427 492.007C499.498 490.393 500.792 488.772 500.964 486.808C500.949 486.107 501.016 485.408 501.164 484.723C501.468 483.818 502.275 483.223 502.882 482.501C503.827 481.356 504.28 479.878 504.709 478.441C506.496 472.468 508.283 466.495 509.772 460.431C510.253 458.467 510.7 456.497 511.359 454.59C511.931 452.918 512.665 451.314 513.392 449.711C515.993 443.899 519.02 438.287 522.447 432.92C522.983 434.723 523.631 436.49 524.388 438.212C524.778 439.099 525.196 439.975 525.591 440.863C527.086 444.207 526.817 448.502 528.655 451.646C529.419 452.937 530.171 454.225 530.912 455.512C531.332 456.142 531.658 456.831 531.879 457.556C532 458.06 532.011 458.587 532.097 459.097C532.487 461.387 534.348 463.002 535.379 465.046C536.324 466.913 536.524 469.055 537.097 471.111C538.454 475.864 541.788 479.993 542.126 484.947C542.168 486.283 542.136 487.622 542.028 488.955C541.943 491.29 542.098 493.627 542.492 495.93C542.523 496.163 542.585 496.39 542.675 496.606C539.741 500.972 535.222 504.024 530.075 505.116C529.102 505.31 527.985 505.517 527.475 506.41C526.862 507.475 527.555 508.941 528.621 509.514C529.686 510.086 530.912 510.029 532.057 509.926C540.274 509.239 548.402 507.739 556.323 505.448C556.724 505.365 557.09 505.166 557.377 504.875C557.659 504.456 557.783 503.951 557.727 503.449C557.722 501.599 557.291 499.774 556.467 498.118L557.039 497.917C557.36 495.627 556.18 493.41 555.264 491.286C553.672 487.581 552.801 483.578 551.541 479.724C549.113 472.279 545.19 465.333 544.245 457.545C543.987 455.403 543.345 453.227 543.208 451.074C542.933 446.687 542.635 442.277 541.679 438.005C540.877 434.489 539.611 431.133 538.815 427.577C538.019 424.021 537.761 420.281 538.93 416.88C539.262 415.906 539.709 414.984 540.012 414.017C541.158 410.231 540.064 406.131 538.953 402.328C538.601 401.126 538.254 399.927 537.91 398.732C537.446 397.157 536.988 395.577 536.484 394.013C536.553 393.95 536.616 393.887 536.685 393.813C537.693 392.668 537.681 390.915 538.403 389.547C538.758 388.842 539.296 388.264 539.674 387.577C540.389 386.091 540.572 384.405 540.195 382.801C539.892 381.197 539.285 379.674 538.827 378.111C537.583 373.82 537.488 369.278 538.552 364.939C539.016 363.09 539.697 361.274 539.795 359.367C539.827 358.092 539.71 356.818 539.445 355.571C538.557 350.76 536.816 345.881 533.283 342.703C531.398 340.985 528.85 339.479 528.649 336.867C528.345 336.75 528.01 336.738 527.699 336.833C527.537 336.239 527.43 335.631 527.378 335.018H527.406C527.582 335.037 527.758 335.037 527.933 335.018C528.082 335.008 528.226 334.967 528.357 334.897C528.431 334.853 528.5 334.802 528.563 334.743C528.786 334.514 528.979 334.258 529.136 333.981C529.371 333.592 529.583 333.174 529.76 332.887C529.938 332.601 530.224 332.143 530.448 331.742C531.116 330.597 531.736 329.432 532.309 328.249V328.203C532.366 328.094 532.418 327.98 532.469 327.871L532.538 327.716L532.641 327.481C532.641 327.424 532.693 327.361 532.716 327.304C532.739 327.247 532.779 327.161 532.807 327.086L532.887 326.897C532.916 326.829 532.939 326.76 532.968 326.685C532.996 326.622 533.021 326.557 533.042 326.491C533.071 326.422 533.094 326.353 533.117 326.285C533.139 326.216 533.162 326.153 533.191 326.084C533.22 326.015 533.231 325.947 533.254 325.878L533.323 325.672C533.323 325.603 533.357 325.54 533.38 325.471L533.437 325.26L533.489 325.059L533.54 324.841C533.54 324.778 533.54 324.715 533.58 324.647C533.621 324.578 533.58 324.498 533.621 324.423C533.661 324.349 533.621 324.297 533.621 324.234L533.655 324.011V323.822C533.655 323.742 533.655 323.668 533.655 323.593C533.655 323.519 533.655 323.467 533.655 323.404C533.655 323.341 533.655 323.249 533.655 323.175V323.043C533.655 322.963 533.655 322.889 533.655 322.809C533.655 322.728 533.655 322.694 533.655 322.637C533.655 322.579 533.655 322.476 533.655 322.396C533.655 322.316 533.655 322.287 533.655 322.236C533.628 322.011 533.584 321.789 533.523 321.572C533.137 320.238 532.354 319.053 531.278 318.176C530.237 317.326 529.08 316.63 527.842 316.108C527.54 315.992 527.264 315.819 527.028 315.599C526.753 315.199 526.524 314.768 526.347 314.316C525.843 313.434 524.835 313.039 523.89 312.804C522.945 312.569 521.931 312.42 521.141 311.819C521.07 311.758 520.989 311.712 520.9 311.682C520.779 311.672 520.658 311.698 520.551 311.756L518.346 312.735C518.324 312.599 518.275 312.467 518.201 312.35C518.128 312.232 518.032 312.13 517.919 312.05C517.807 311.969 517.679 311.912 517.544 311.881C517.408 311.85 517.268 311.847 517.132 311.871C516.588 312.002 516.093 312.286 515.706 312.69C515.638 312.622 515.591 312.537 515.568 312.444C515.544 312.352 515.547 312.254 515.574 312.163L513.856 313.308C513.644 313.445 513.254 313.48 513.283 313.216C512.327 314.26 511.499 315.414 510.815 316.652C510.601 317.031 510.42 317.428 510.276 317.838C510.276 317.924 510.225 318.01 510.202 318.096C510.199 318.113 510.199 318.13 510.202 318.147C510.202 318.222 510.167 318.302 510.156 318.382C510.153 318.405 510.153 318.428 510.156 318.451C510.156 318.548 510.156 318.651 510.156 318.748C510.15 318.859 510.15 318.97 510.156 319.08C510.174 319.399 510.275 319.707 510.449 319.974C510.622 320.241 510.863 320.458 511.147 320.604C511.366 320.685 511.6 320.722 511.834 320.713C512.326 320.654 512.813 320.555 513.289 320.415C513.443 320.377 513.6 320.35 513.758 320.335C513.833 320.329 513.907 320.329 513.982 320.335C514.281 320.328 514.573 320.427 514.807 320.615L514.841 320.65C513.59 321.55 512.573 322.736 511.875 324.11C511.178 325.484 510.82 327.006 510.832 328.547C510.829 330.063 511.174 331.559 511.84 332.922C511.611 333.048 511.422 333.237 511.296 333.466C511.169 333.695 511.109 333.955 511.124 334.216C510.974 333.777 510.895 333.317 510.889 332.853C509.95 332.664 509.268 333.764 508.93 334.708C508.235 336.844 507.698 339.028 507.321 341.243C507.029 342.714 506.748 344.186 506.45 345.658C506.153 347.13 505.878 348.71 505.66 350.239C505.154 354.209 505.334 358.236 506.193 362.145C506.135 362.271 506.084 362.402 506.032 362.528C505.861 362.987 505.374 363.376 505.316 363.863C505.007 366.778 506.851 369.406 508.592 371.691C508.735 371.925 508.931 372.121 509.165 372.264C509.42 372.37 509.699 372.405 509.973 372.367C510.667 372.333 511.359 372.264 512.046 372.161C512.086 372.55 512.132 372.934 512.178 373.306C512.67 377.418 513.512 381.529 513.506 385.67C513.501 389.81 512.716 394.008 514.303 397.696C514.566 398.326 515.076 398.841 515.127 399.494H515.225C514.255 401.47 513.461 403.528 512.854 405.644C512.224 408.13 512.092 410.741 511.387 413.203C510.786 415.294 509.784 417.212 508.976 419.251C507.661 422.562 506.888 426.064 506.685 429.622C506.664 431.255 506.333 432.87 505.712 434.38C504.785 436.192 503.974 438.061 503.283 439.975C502.138 443.377 500.208 446.601 499.847 450.203C499.646 452.242 499.939 454.418 499.085 456.262C498.753 456.983 498.26 457.608 497.871 458.289C497.302 459.381 496.859 460.534 496.548 461.725L490.878 480.526C490.663 481.559 490.186 482.519 489.492 483.314C488.965 483.818 488.272 484.093 487.774 484.614C486.972 485.428 486.772 486.619 486.766 487.833C486.158 487.943 485.569 488.135 485.013 488.405C482.616 489.43 480.035 489.958 477.428 489.958C474.82 489.958 472.24 489.43 469.842 488.405C468.925 488.01 467.883 487.541 466.978 487.993C465.919 488.543 465.747 490.141 466.32 491.223ZM511.49 348.813C511.83 347.257 512.468 345.781 513.369 344.467C514.652 342.353 516.004 340.263 517.229 338.104L517.579 337.766C517.676 338.041 517.768 338.339 517.853 338.597C518.066 339.331 518.236 340.077 518.363 340.83C518.544 341.773 518.598 342.736 518.524 343.694L518.443 343.757C517.98 344.054 517.606 344.472 517.361 344.965C517.2 345.456 517.2 345.986 517.361 346.477L517.309 346.534L517.367 346.494C517.567 347.284 517.939 348.097 517.819 348.899C517.687 349.867 516.908 350.571 516.422 351.402C515.276 353.4 515.643 356.435 513.758 357.661L513.724 357.741C513.32 357.646 512.943 357.459 512.622 357.194C512.301 356.93 512.045 356.596 511.874 356.218C512.023 353.772 511.107 351.264 511.49 348.813Z" fill="url(#paint0_linear_437_3271)"/> <path d="M558.717 503.862C558.779 504.333 558.647 504.808 558.347 505.192C558.034 505.468 557.644 505.656 557.22 505.735C548.742 507.881 540.065 509.285 531.303 509.927C530.047 510.014 528.72 510.079 527.61 509.542C526.501 509.004 525.761 507.63 526.436 506.637C526.982 505.8 528.198 505.605 529.213 505.426C534.712 504.434 539.584 501.516 542.811 497.281C543.197 496.674 543.698 496.137 544.291 495.695C545.418 494.984 546.916 495.152 548.248 495.397C550.597 495.842 553.715 496.369 555.834 497.433C557.954 498.497 558.682 501.782 558.717 503.862Z" fill="#3F3D56"/> <path opacity="0.1" d="M558.717 503.862C558.779 504.333 558.647 504.808 558.347 505.192C558.034 505.468 557.644 505.656 557.22 505.735C548.742 507.881 540.065 509.285 531.303 509.927C530.047 510.014 528.72 510.079 527.61 509.542C526.501 509.004 525.761 507.63 526.436 506.637C526.982 505.8 528.198 505.605 529.213 505.426C534.712 504.434 539.584 501.516 542.811 497.281C543.197 496.674 543.698 496.137 544.291 495.695C545.418 494.984 546.916 495.152 548.248 495.397C550.597 495.842 553.715 496.369 555.834 497.433C557.954 498.497 558.682 501.782 558.717 503.862Z" fill="black"/> <path d="M535.538 393.616C536.39 395.919 537.104 398.222 537.824 400.525L538.91 404.094C540.053 407.865 541.196 411.929 540.013 415.688C539.699 416.661 539.236 417.576 538.87 418.567C537.658 421.94 537.938 425.688 538.75 429.182C539.561 432.677 540.876 436.033 541.71 439.545C542.722 443.782 543.013 448.18 543.299 452.503C543.442 454.639 544.105 456.798 544.379 458.922C545.362 466.642 549.437 473.562 551.963 480.919C553.271 484.736 554.174 488.702 555.837 492.381C556.786 494.488 558.015 496.67 557.683 498.955C553.037 500.613 547.888 500.585 543.51 498.311C543.235 498.211 542.995 498.029 542.824 497.79C542.653 497.55 542.557 497.264 542.55 496.969C542.149 494.69 541.995 492.374 542.093 490.061C542.203 488.744 542.235 487.421 542.19 486.1C541.842 481.19 538.373 477.097 536.967 472.376C536.395 470.367 536.132 468.219 535.15 466.366C534.075 464.339 532.144 462.722 531.721 460.465C531.629 459.958 531.618 459.44 531.498 458.939C531.263 458.215 530.922 457.53 530.486 456.907L528.155 453.056C526.24 449.936 526.52 445.676 524.971 442.36C524.56 441.479 524.12 440.633 523.714 439.735C522.931 438.03 522.257 436.276 521.697 434.484C518.138 439.778 514.986 445.338 512.267 451.116C511.481 452.692 510.775 454.308 510.153 455.957C509.467 457.846 509.01 459.803 508.501 461.749C506.958 467.765 505.072 473.689 503.238 479.595C502.792 481.023 502.318 482.473 501.341 483.625C500.712 484.339 499.878 484.926 499.558 485.83C499.406 486.506 499.337 487.198 499.352 487.891C499.169 489.842 497.826 491.448 496.712 493.072C496.072 493.943 495.581 494.916 495.26 495.95C495.129 496.414 494.9 496.843 494.59 497.21C494.28 497.577 493.895 497.873 493.462 498.077C493.028 498.282 492.557 498.391 492.078 498.396C491.6 498.402 491.126 498.304 490.688 498.109H490.643C490.189 497.882 489.754 497.62 489.34 497.326C488.258 496.642 487.231 495.872 486.271 495.023C485.421 494.197 484.655 493.286 483.985 492.306C483.87 492.139 483.795 491.947 483.765 491.746C483.736 491.545 483.754 491.34 483.817 491.147C483.88 490.953 483.987 490.778 484.129 490.633C484.272 490.489 484.445 490.38 484.636 490.314C484.516 488.714 484.482 486.889 485.625 485.784C486.156 485.266 486.876 484.989 487.425 484.494C488.139 483.717 488.636 482.764 488.865 481.731C490.816 475.544 492.763 469.357 494.706 463.171C495.03 461.981 495.493 460.833 496.083 459.751C496.489 459.072 496.997 458.456 497.346 457.742C498.232 455.911 497.917 453.758 498.135 451.732C498.506 448.157 500.495 444.968 501.701 441.594C502.422 439.689 503.266 437.833 504.227 436.039C504.872 434.551 505.216 432.948 505.238 431.324C505.45 427.784 506.254 424.306 507.616 421.036C508.45 419.033 509.496 417.116 510.119 415.038C510.856 412.597 510.987 410.006 511.65 407.554C512.287 405.44 513.115 403.389 514.125 401.428C514.953 399.701 515.805 397.934 517.171 396.593C519.411 394.394 522.708 393.674 525.834 393.576C528.96 393.478 532.424 393.944 535.538 393.616Z" fill="#3F3D56"/> <path d="M491.786 503.122C491.558 503.539 491.167 503.864 490.69 504.036C490.268 504.1 489.834 504.054 489.44 503.903C481.075 501.484 472.98 498.357 465.261 494.565C464.158 494.033 463.009 493.416 462.393 492.438C461.777 491.461 461.964 489.956 463.097 489.462C464.047 489.047 465.161 489.462 466.135 489.839C471.328 491.737 477.131 491.737 482.325 489.839C483.006 489.53 483.743 489.335 484.501 489.265C485.856 489.239 487.023 490.105 488.021 490.972C489.733 492.497 492.027 494.469 493.177 496.382C494.326 498.296 492.977 501.394 491.786 503.122Z" fill="#3F3D56"/> <path d="M515.974 348.177C520.074 345.768 524.13 343.283 528.142 340.721C527.182 339.434 526.65 337.882 526.622 336.28C526.622 336.217 526.622 336.153 526.622 336.089C526.563 334.532 527.157 333.195 525.183 333.398C523.286 333.641 521.411 334.028 519.573 334.555C519.049 334.689 514.506 336.35 514.331 336.182C515.344 337.376 516.092 338.769 516.527 340.269C516.751 341.001 516.932 341.745 517.069 342.498C517.465 344.489 517.482 346.828 515.974 348.177Z" fill="#A0616A"/> <path d="M510.765 374.45C511.293 378.517 512.191 382.59 512.185 386.68C512.179 390.771 511.34 394.935 513.036 398.601C513.318 399.221 513.858 399.704 513.916 400.381C516.264 400.778 518.553 399.704 520.789 398.928C522.84 398.225 524.967 397.758 527.128 397.538C528.889 397.365 530.696 397.354 532.445 397.027C534.188 396.76 535.798 395.954 537.041 394.729C538.115 393.58 538.103 391.856 538.854 390.506C539.236 389.811 539.811 389.243 540.216 388.559C540.973 387.099 541.169 385.421 540.768 383.831C540.361 382.261 539.873 380.711 539.306 379.189C537.975 374.957 537.873 370.446 539.013 366.161C539.506 364.328 540.222 362.53 540.339 360.64C540.374 359.377 540.25 358.116 539.97 356.883C539.019 352.126 537.158 347.295 533.39 344.153C531.377 342.47 528.654 340.959 528.443 338.408C527.574 338.075 526.641 338.644 525.895 339.184L517.526 345.221C517.029 345.508 516.623 345.924 516.352 346.422C515.83 347.645 517.033 348.99 516.839 350.311C516.698 351.27 515.865 351.965 515.349 352.793C514.116 354.763 514.515 357.768 512.502 358.98C512.32 359.347 512.15 359.726 511.997 360.129C511.278 362.136 510.796 364.218 510.559 366.333C510.278 369.036 510.348 371.764 510.765 374.45Z" fill="#3F3D56"/> <path opacity="0.1" d="M514.331 336.716C515.336 337.978 516.079 339.451 516.511 341.038C517.167 341.193 517.838 341.271 518.511 341.27C521.875 341.27 524.13 337.187 525.801 334.383C525.748 332.737 527.038 333.557 525.078 333.771C523.195 334.028 521.334 334.438 519.511 334.995C518.991 335.136 514.481 336.893 514.331 336.716Z" fill="black"/> <path d="M518.776 339.289C523.952 339.289 528.148 335.093 528.148 329.916C528.148 324.74 523.952 320.543 518.776 320.543C513.601 320.543 509.405 324.74 509.405 329.916C509.405 335.093 513.601 339.289 518.776 339.289Z" fill="#A0616A"/> <path d="M511.652 337.037L513.827 339.419C514.54 340.2 515.75 340.255 516.531 339.542L523.835 332.875C524.615 332.162 524.671 330.951 523.958 330.17L521.783 327.788C521.071 327.007 519.86 326.951 519.079 327.664L511.776 334.332C510.995 335.044 510.94 336.256 511.652 337.037Z" fill="#3F3D56"/> <path opacity="0.1" d="M511.652 337.037L513.827 339.419C514.54 340.2 515.75 340.255 516.531 339.542L523.835 332.875C524.615 332.162 524.671 330.951 523.958 330.17L521.783 327.788C521.071 327.007 519.86 326.951 519.079 327.664L511.776 334.332C510.995 335.044 510.94 336.256 511.652 337.037Z" fill="black"/> <path d="M519.76 333.38C520.032 333.38 520.253 332.938 520.253 332.393C520.253 331.848 520.032 331.406 519.76 331.406C519.488 331.406 519.267 331.848 519.267 332.393C519.267 332.938 519.488 333.38 519.76 333.38Z" fill="white"/> <path opacity="0.1" d="M510.756 374.814C518.021 373.752 524.619 369.426 529.668 364.061C530.612 363.178 531.342 362.096 531.804 360.894C532.058 359.889 532.145 358.85 532.063 357.817L531.942 353.697C531.89 351.893 531.815 350.021 530.935 348.446C530.054 346.871 528.091 345.735 526.398 346.391C521.948 348.103 519.052 352.019 516.507 356.025C515.779 357.274 514.986 358.484 514.13 359.649C513.698 360.192 513.111 360.745 512.402 360.671C512.253 360.658 512.107 360.619 511.971 360.557C511.265 362.552 510.792 364.62 510.56 366.721C510.28 369.416 510.346 372.135 510.756 374.814Z" fill="black"/> <path d="M509.895 350.571C510.253 348.917 510.917 347.357 511.848 345.983C514.641 341.304 517.782 336.734 519.273 331.406C517.097 331.829 516.754 335.841 514.549 336.019L514.721 333.125C514.721 332.636 514.721 332.043 514.35 331.786C513.978 331.529 513.316 331.865 513.07 332.348C512.825 332.832 512.773 333.419 512.545 333.914C512.316 334.41 511.78 334.85 511.306 334.63L511.111 333.67C510.908 333.624 510.697 333.629 510.495 333.683C510.293 333.738 510.105 333.841 509.946 333.985C509.787 334.129 509.661 334.31 509.577 334.514C509.493 334.718 509.453 334.939 509.461 335.162C509.305 334.701 509.222 334.215 509.215 333.725C508.239 333.529 507.53 334.685 507.182 335.682C506.459 337.927 505.898 340.227 505.503 342.564L504.606 347.219C504.292 348.828 503.984 350.436 503.778 352.057C503.24 356.36 503.453 360.733 504.406 364.952C505.603 364.241 506.764 363.463 507.885 362.621C508.747 361.838 509.712 360.951 510.038 359.759C510.843 356.749 509.421 353.599 509.895 350.571Z" fill="#A0616A"/> <path d="M526.393 344.416C528.089 343.742 530.056 344.907 530.939 346.523C531.822 348.138 531.897 350.035 531.949 351.908L532.064 356.146C532.151 357.204 532.065 358.27 531.81 359.3C531.346 360.531 530.617 361.641 529.676 362.549C524.08 368.631 516.598 373.401 508.406 373.805C508.119 373.844 507.827 373.807 507.558 373.699C507.325 373.55 507.128 373.35 506.981 373.114C505.152 370.808 503.22 368.156 503.52 365.218C503.572 364.726 504.097 364.328 504.27 363.872C505.369 361.211 507.384 359.047 509.94 357.784L510.437 357.55C510.628 357.938 510.901 358.277 511.237 358.545C511.574 358.812 511.964 359 512.381 359.096C513.073 359.166 513.667 358.604 514.111 358.048C514.969 356.85 515.765 355.608 516.494 354.325C519.032 350.175 521.94 346.177 526.393 344.416Z" fill="#3F3D56"/> <path d="M525.526 336.075C524.731 335.669 524.605 334.626 524.525 333.746C524.436 332.722 524.277 331.704 524.05 330.701C523.805 329.573 523.399 328.411 522.426 327.814C522.085 327.605 521.696 327.486 521.295 327.466C520.894 327.447 520.495 327.528 520.134 327.702C519.774 327.876 519.464 328.137 519.234 328.462C519.003 328.786 518.86 329.163 518.818 329.556C518.829 329.744 518.772 329.93 518.658 330.081C518.581 330.152 518.486 330.2 518.383 330.222C517.934 330.323 517.463 330.255 517.062 330.032C516.661 329.809 516.36 329.446 516.216 329.015C516.05 328.451 516.176 327.723 515.77 327.261C515.364 326.799 514.883 326.81 514.489 326.505C514.25 326.272 514.067 325.989 513.956 325.676C513.844 325.364 513.805 325.03 513.842 324.701C513.842 323.861 513.957 322.857 513.271 322.338C512.236 321.543 510.68 322.806 509.462 322.338C509.125 322.176 508.844 321.918 508.658 321.597C508.471 321.277 508.387 320.908 508.415 320.539C508.486 319.801 508.741 319.092 509.159 318.475C509.875 317.266 510.737 316.147 511.727 315.143C511.727 315.391 512.121 315.362 512.338 315.227L514.146 314.144C514.115 314.234 514.113 314.331 514.138 314.422C514.164 314.514 514.216 314.596 514.289 314.658C514.699 314.265 515.212 313.992 515.77 313.868C516.05 313.817 516.34 313.876 516.576 314.033C516.813 314.19 516.977 314.433 517.034 314.708L519.321 313.733C519.414 313.67 519.527 313.641 519.639 313.653C519.751 313.664 519.855 313.715 519.933 313.795C520.757 314.359 521.809 314.522 522.792 314.748C523.776 314.973 524.823 315.362 525.349 316.22C525.537 316.659 525.777 317.076 526.064 317.46C526.317 317.68 526.61 317.85 526.927 317.962C528.216 318.462 529.429 319.136 530.53 319.964C531.635 320.803 532.452 321.956 532.869 323.269C533.487 325.462 532.594 327.78 531.559 329.804C530.77 331.351 529.883 332.848 528.906 334.287C528.54 334.851 528.036 335.917 527.447 336.244C526.807 336.42 526.124 336.36 525.526 336.075Z" fill="#3F3D56"/> <path opacity="0.1" d="M509.46 320.263C510.677 320.719 512.23 319.472 513.264 320.263C513.932 320.775 513.835 321.766 513.835 322.595C513.797 322.921 513.836 323.25 513.948 323.558C514.059 323.867 514.241 324.147 514.48 324.377C514.874 324.678 515.434 324.75 515.759 325.123C516.085 325.496 516.039 326.276 516.205 326.855C516.348 327.28 516.65 327.639 517.05 327.859C517.451 328.08 517.921 328.146 518.369 328.046C518.472 328.025 518.567 327.977 518.643 327.907C518.758 327.758 518.814 327.575 518.803 327.389C518.846 327.001 518.988 326.629 519.218 326.309C519.448 325.988 519.757 325.73 520.117 325.559C520.477 325.387 520.876 325.307 521.277 325.326C521.677 325.345 522.066 325.463 522.407 325.669C523.377 326.259 523.783 327.428 524.028 328.519C524.255 329.51 524.413 330.514 524.502 331.526C524.582 332.394 524.708 333.424 525.502 333.825C526.109 334.115 526.805 334.174 527.455 333.992C528.026 333.669 528.546 332.6 528.911 332.06C529.888 330.631 530.773 329.143 531.561 327.606C532.216 326.418 532.69 325.142 532.966 323.82C533.377 325.869 532.532 327.996 531.561 329.883C530.772 331.411 529.887 332.889 528.911 334.31C528.546 334.866 528.043 335.919 527.455 336.241C526.805 336.424 526.109 336.364 525.502 336.074C524.708 335.674 524.582 334.644 524.502 333.775C524.413 332.764 524.255 331.759 524.028 330.769C523.783 329.655 523.377 328.508 522.407 327.918C522.066 327.712 521.677 327.594 521.277 327.575C520.876 327.556 520.477 327.636 520.117 327.808C519.757 327.98 519.448 328.238 519.218 328.558C518.988 328.878 518.846 329.25 518.803 329.638C518.814 329.824 518.758 330.007 518.643 330.156C518.567 330.226 518.472 330.274 518.369 330.295C517.921 330.395 517.451 330.329 517.05 330.108C516.65 329.888 516.348 329.53 516.205 329.104C516.039 328.547 516.165 327.829 515.759 327.372C515.354 326.916 514.874 326.927 514.48 326.626C514.241 326.396 514.059 326.116 513.948 325.808C513.836 325.499 513.797 325.17 513.835 324.845C513.835 324.015 513.949 323.024 513.264 322.512C512.23 321.727 510.677 322.974 509.46 322.512C509.124 322.352 508.844 322.097 508.658 321.781C508.471 321.464 508.387 321.1 508.415 320.736C508.436 320.334 508.532 319.939 508.701 319.572C508.865 319.881 509.133 320.125 509.46 320.263Z" fill="black"/> <path opacity="0.1" d="M412.157 515.901C453.291 515.901 486.636 511.263 486.636 505.541C486.636 499.82 453.291 495.182 412.157 495.182C371.023 495.182 337.677 499.82 337.677 505.541C337.677 511.263 371.023 515.901 412.157 515.901Z" fill="#4450B9"/> <path d="M431.252 370.942C431.252 370.942 428.918 366.39 429.233 365.037C429.548 363.684 427.592 360.794 427.592 360.794L427.718 356C427.718 356 427.448 356.49 426.04 356.919C425.921 356.765 425.792 356.613 425.658 356.468C425.148 355.943 424.581 355.475 423.967 355.074L421.487 349.784L419.089 346.154C419.089 346.154 415.308 338.556 411.403 336.879L410.788 335.69C410.808 335.679 410.823 335.66 410.83 335.637C410.837 335.615 410.835 335.591 410.825 335.57L410.2 334.362C410.189 334.341 410.17 334.325 410.148 334.317C410.126 334.309 410.101 334.309 410.079 334.318L409.481 333.161C409.253 331.662 408.657 330.24 407.745 329.021C407.683 328.935 407.616 328.857 407.552 328.776L408.524 328.742C409.377 328.71 410.329 328.636 410.902 328.006C411.107 327.771 411.259 327.496 411.346 327.197C411.419 326.964 411.468 326.723 411.49 326.479C411.49 326.442 411.49 326.406 411.49 326.371C411.49 326.288 411.49 326.206 411.49 326.126C411.49 326.06 411.49 325.996 411.49 325.93C411.49 325.864 411.49 325.825 411.49 325.773C411.49 325.722 411.462 325.604 411.447 325.528C411.447 325.496 411.447 325.465 411.428 325.433C411.407 325.337 411.381 325.242 411.351 325.148C411.343 325.13 411.338 325.111 411.333 325.092C411.299 324.994 411.261 324.896 411.219 324.8C411.212 324.788 411.207 324.775 411.202 324.761C411.157 324.665 411.108 324.572 411.056 324.482L411.041 324.452C411.023 324.414 411.002 324.377 410.979 324.342C410.307 323.298 409.127 322.687 408.003 322.136C406.955 321.591 405.879 321.1 404.78 320.665C400.692 319.15 396.177 319.213 392.134 320.842C391.735 320.991 391.357 321.191 391.008 321.435C390.523 321.841 390.109 322.323 389.781 322.861L387.859 325.668C387.591 326.009 387.381 326.392 387.237 326.8C386.878 328.134 388.006 329.47 387.879 330.845C387.815 331.528 387.443 332.156 387.371 332.84C387.279 333.722 387.693 334.573 388.097 335.369L390.847 340.762C390.701 341.47 390.54 342.196 390.364 342.897C389.097 344.191 388.67 344.897 388.554 345.279L388.516 345.299C388.266 345.459 388.05 345.667 387.882 345.911L385.268 348.421C385.268 348.421 380.726 349.588 379.781 351.066C379.781 351.066 372.652 350.757 372.714 360.598C372.714 360.598 372.399 364.29 372.218 364.782C372.037 365.275 372.218 370.256 372.218 370.256L372.134 380.344C372.134 380.344 371.861 385.695 372.134 387.602C372.407 389.509 372.722 396.766 372.722 396.766C372.722 396.766 374.425 403.84 373.795 406.362C373.19 408.777 373.795 414.056 374.787 414.078C374.976 414.463 375.191 414.652 375.427 414.544C375.529 414.5 375.635 414.462 375.742 414.431V420.459C375.742 420.459 374.514 428.902 375.891 430.508C374.978 431.792 373.907 433.984 373.634 434.56L363.989 434.047L362.761 434.388L361.636 434.699L360.954 450.207L361.227 450.227L361.207 450.7L361.851 450.746L360.954 466.365L374.306 467.451C373.719 468.752 373.037 470.147 372.771 470.282C372.275 470.527 371.194 469.791 370.941 470.095C370.689 470.399 369.932 470.772 369.05 470.585C368.167 470.399 367.599 471.385 367.599 471.385C367.599 471.385 367.728 471.497 367.921 471.706C366.488 471.534 364.676 472.294 363.691 472.784C363.25 473.005 362.975 473.169 362.975 473.169H360.371L361.802 482.191L362.811 482.873L363.059 489.981C363.059 489.981 367.096 502.283 368.945 502.202C369.065 502.198 369.183 502.168 369.291 502.115C369.398 502.061 369.493 501.986 369.568 501.893C370.56 500.761 369.873 496.871 369.873 496.871V490.395C369.873 490.395 371.385 489.738 371.217 489.246C371.048 488.753 373.657 483.363 373.89 482.873C373.896 482.869 373.902 482.863 373.905 482.856C373.909 482.849 373.91 482.841 373.909 482.834C373.909 482.28 375.045 481.664 374.981 481.419C374.916 481.174 377.758 479.635 377.956 478.282C378.154 476.929 380.036 477.667 380.036 477.667L382.432 474.946C382.504 478.262 382.64 480.583 382.876 481.172C384.011 484.003 384.453 488.432 384.453 488.432C384.453 488.432 383.758 491.814 384.453 492.922C384.879 493.599 385.871 494.324 386.56 494.925C385.844 497.072 385.945 501.636 385.945 501.636V504.258L391.244 505.729C391.244 505.729 391.41 504.418 391.663 504.418C391.916 504.418 395.281 506.96 395.281 506.96C395.281 506.96 408.234 507.124 411.512 506.96C412.752 506.898 413.089 506.371 412.898 505.734C412.583 504.673 410.815 503.298 409.243 503.192C406.719 503.028 403.523 500.405 403.523 500.405C403.523 500.405 403.771 499.829 402.429 499.011C401.502 498.447 398.936 496.165 397.349 494.829C397.423 494.729 397.5 494.628 397.572 494.52C397.572 494.52 395.427 491.579 395.871 490.275C396.315 488.971 395.68 487.089 395.68 487.089C395.68 487.089 394.482 483.459 394.482 481.613C394.482 480.444 394.304 473.794 394.175 469.078L395.281 469.169L395.303 468.698L395.799 468.742L400.488 469.169L400.344 464.215C402.603 463.235 404.482 462.325 405.261 461.744C407.909 459.784 410.18 459.654 410.18 459.654C410.18 459.654 415.541 456.825 416.362 455.656C417.183 454.487 417.106 445.999 417.106 445.999L416.664 427.807V427.792C416.664 427.792 416.287 418.998 415.529 417.091C415.251 416.385 414.564 414.032 413.813 411.345C414.245 411.301 414.681 411.32 415.107 411.399C415.134 412.056 415.152 412.507 415.152 412.662C415.152 413.706 416.664 414.593 416.664 414.593L415.593 391.063V375.055C418.896 376.094 426.883 376.418 426.883 376.418C432.638 376.118 431.252 370.942 431.252 370.942ZM400.098 350.725H400.081C400.198 350.108 400.352 349.499 400.54 348.899L400.098 350.725ZM378.422 431.432C380.379 431.751 382.637 431.657 382.809 431.282C382.826 431.246 382.848 431.18 382.878 431.094C382.94 431.202 382.999 431.312 383.061 431.425L382.871 434.974V435.055L376.424 434.712C376.875 432.812 377.728 431.885 378.422 431.432ZM399.913 449.34L399.746 443.592C400.034 442.533 400.292 441.572 400.513 440.749C400.612 441.432 400.696 442.062 400.761 442.643C401.37 448.097 400.47 449.161 399.913 449.34ZM418.261 363.165C417.892 363.304 416.486 362.429 415.152 361.522C415.152 361.356 415.164 361.191 415.172 361.032C415.36 357.28 409.179 354.944 407.287 354.512C406.828 354.395 406.382 354.231 405.958 354.022C404.95 353.528 403.97 352.981 403.022 352.382L403.047 352.311C403.047 352.311 400.607 350.784 400.555 348.88C401.111 347.147 401.812 345.464 402.652 343.848C402.7 343.752 402.752 343.652 402.801 343.556C403.954 343.201 405.031 342.638 405.975 341.894C406.354 346.796 413.53 351.015 413.53 351.015L414.296 352.24L414.477 352.529C414.091 352.755 413.905 352.936 414.036 353.042C414.582 353.473 415.901 355.914 416.446 356.946C416.595 357.226 416.694 357.4 416.694 357.4C416.694 357.4 417.867 360.554 418.539 363.194C418.45 363.157 418.351 363.147 418.256 363.165H418.261Z" fill="url(#paint1_linear_437_3271)"/> <path d="M420.538 349.694L420.451 349.805L420.154 350.19L414.444 354.093L413.233 352.166L412.463 350.925C412.463 350.925 401.084 344.321 405.977 337.955C410.87 331.589 418.101 346.024 418.101 346.024L420.538 349.694Z" fill="#FFC5D3"/> <path d="M409.56 334.44C409.536 334.394 409.48 334.375 409.434 334.398C409.388 334.422 409.369 334.478 409.393 334.524L410.002 335.733C410.025 335.779 410.081 335.798 410.127 335.775C410.173 335.751 410.192 335.695 410.169 335.649L409.56 334.44Z" fill="#3A3768"/> <path d="M403.313 336.13L403.311 336.131C403.285 336.144 403.275 336.175 403.288 336.2L403.47 336.562C403.483 336.587 403.514 336.598 403.539 336.585L403.542 336.584C403.567 336.571 403.577 336.54 403.565 336.514L403.383 336.153C403.37 336.127 403.339 336.117 403.313 336.13Z" fill="#3A3768"/> <path d="M403.809 336.984C403.795 336.955 403.759 336.943 403.73 336.958C403.701 336.972 403.689 337.008 403.704 337.037L404.048 337.721C404.063 337.75 404.098 337.761 404.127 337.747C404.157 337.732 404.168 337.697 404.154 337.667L403.809 336.984Z" fill="#3A3768"/> <path d="M404.342 338.047C404.328 338.019 404.294 338.008 404.266 338.022C404.238 338.036 404.227 338.07 404.241 338.098L404.591 338.792C404.605 338.82 404.639 338.832 404.667 338.818C404.695 338.803 404.706 338.769 404.692 338.741L404.342 338.047Z" fill="#3A3768"/> <path d="M407.651 332.071L403.053 334.387C402.781 334.524 402.672 334.855 402.809 335.127L408.027 345.49C408.164 345.762 408.495 345.871 408.767 345.734L413.365 343.418C413.637 343.281 413.746 342.95 413.61 342.678L408.392 332.315C408.255 332.043 407.923 331.934 407.651 332.071Z" fill="#3A3768"/> <path d="M406.98 331.737C406.951 331.751 406.926 331.771 406.905 331.794C406.884 331.818 406.868 331.846 406.858 331.876C406.848 331.905 406.844 331.937 406.847 331.968C406.849 332 406.858 332.03 406.873 332.058L406.894 332.103C406.909 332.131 406.918 332.162 406.92 332.193C406.923 332.225 406.919 332.256 406.909 332.286C406.899 332.317 406.884 332.344 406.863 332.368C406.842 332.392 406.816 332.412 406.788 332.426L404.223 333.699C404.195 333.714 404.164 333.722 404.132 333.725C404.1 333.727 404.068 333.724 404.038 333.714C404.008 333.704 403.98 333.688 403.956 333.668C403.932 333.647 403.912 333.622 403.898 333.594L403.874 333.549C403.86 333.521 403.84 333.496 403.816 333.475C403.792 333.455 403.764 333.439 403.734 333.429C403.704 333.419 403.672 333.415 403.64 333.417C403.608 333.419 403.577 333.427 403.549 333.441L403.05 333.691C402.995 333.718 402.947 333.755 402.907 333.8C402.867 333.845 402.836 333.898 402.817 333.955C402.798 334.012 402.791 334.072 402.795 334.132C402.8 334.192 402.817 334.251 402.845 334.304L408.294 344.974C408.35 345.082 408.447 345.164 408.563 345.201C408.68 345.239 408.808 345.23 408.918 345.176L413.391 342.954C413.5 342.899 413.584 342.803 413.622 342.688C413.66 342.573 413.651 342.447 413.596 342.338L408.145 331.664C408.117 331.61 408.079 331.562 408.033 331.523C407.987 331.483 407.933 331.453 407.875 331.435C407.817 331.416 407.756 331.409 407.695 331.413C407.634 331.418 407.575 331.434 407.521 331.461L406.98 331.737Z" fill="#4450B9"/> <path d="M405.674 333.491L405.052 333.804C405.009 333.826 404.991 333.879 405.013 333.923C405.035 333.966 405.088 333.984 405.132 333.962L405.754 333.649C405.798 333.627 405.815 333.573 405.793 333.53C405.771 333.486 405.718 333.468 405.674 333.491Z" fill="#E6E8EC"/> <path d="M410.182 370.875L408.71 413.3C408.71 413.3 413.655 411.529 414.421 412.857C415.186 414.185 413.597 391.609 413.597 391.609L410.182 370.875Z" fill="#5F5570"/> <path opacity="0.15" d="M410.182 370.875L408.71 413.3C408.71 413.3 413.655 411.529 414.421 412.857C415.186 414.185 413.597 391.609 413.597 391.609L410.182 370.875Z" fill="black"/> <path d="M411.241 506.952C408.006 507.11 395.233 506.952 395.233 506.952C395.233 506.952 391.913 504.508 391.665 504.508C391.416 504.508 391.251 505.769 391.251 505.769L386.026 504.35V501.828C386.026 501.828 385.859 494.647 387.434 494.335C389.009 494.023 395.979 494.335 395.979 494.335C396.228 494.257 400.956 498.515 402.282 499.303C403.609 500.091 403.36 500.645 403.36 500.645C403.36 500.645 406.513 503.167 409.001 503.325C410.551 503.425 412.296 504.745 412.607 505.769C412.796 506.387 412.46 506.893 411.241 506.952Z" fill="#BC8487"/> <path opacity="0.1" d="M411.24 506.937C408.005 507.12 395.23 506.937 395.23 506.937C395.23 506.937 391.909 504.126 391.661 504.126C391.412 504.126 391.247 505.576 391.247 505.576L386.021 503.943V501.099L390.914 503.037L394.814 505.576H412.607C412.796 506.287 412.46 506.869 411.24 506.937Z" fill="black"/> <g opacity="0.1"> <path d="M396.883 503.083C396.883 503.083 400.429 499.228 402.801 500.317L396.883 503.083Z" fill="black"/> <path d="M396.883 503.083C396.883 503.083 400.429 499.228 402.801 500.317" stroke="black" stroke-miterlimit="10"/> </g> <path d="M370.841 489.106C370.988 489.599 369.665 490.258 369.665 490.258V496.747C369.665 496.747 370.265 500.644 369.398 501.781C369.333 501.873 369.251 501.948 369.157 502.001C369.063 502.055 368.96 502.084 368.855 502.089C367.239 502.17 363.71 489.846 363.71 489.846L363.489 482.725L362.607 482.042L361.356 473.004H363.637C363.637 473.004 363.877 472.839 364.263 472.617C365.366 471.988 367.675 470.891 368.93 471.936L373.194 482.671C373.194 482.671 370.695 488.613 370.841 489.106Z" fill="#BC8487"/> <path opacity="0.1" d="M370.235 501.783C370.163 501.876 370.072 501.951 369.969 502.005C369.865 502.058 369.752 502.088 369.636 502.092C367.851 502.174 363.954 489.797 363.954 489.797L363.711 482.646L362.737 481.96L361.356 472.883H363.874C363.874 472.883 364.14 472.717 364.566 472.494L365.172 481.794L365.496 489.797C365.496 489.797 368.554 498.51 370.235 501.783Z" fill="black"/> <path d="M414.868 455.913C414.068 457.091 408.835 459.943 408.835 459.943C408.835 459.943 406.618 460.067 404.032 462.051C402.695 463.077 398.048 465.113 393.874 466.841C389.976 468.456 386.486 469.8 386.486 469.8L382.467 474.511L379.406 478.099C379.406 478.099 377.559 477.355 377.374 478.719C377.19 480.083 374.419 481.633 374.481 481.881C374.542 482.129 373.434 482.749 373.434 483.307C373.434 483.865 369.309 479.277 369.371 476.487C369.432 473.698 367.277 471.776 367.277 471.776C367.277 471.776 367.831 470.784 368.693 470.97C369.555 471.156 370.294 470.784 370.54 470.474C370.787 470.164 371.833 470.908 372.326 470.66C372.818 470.412 374.788 465.515 374.788 465.515L382.465 460.33L397.733 450.024L398.437 449.548C398.437 449.548 400.469 450.485 399.644 442.806C399.484 441.318 399.216 439.51 398.807 437.308C396.282 423.732 405.333 422.182 405.333 422.182L413.275 424.848L415.183 427.823V427.838L415.614 446.173C415.614 446.173 415.669 454.736 414.868 455.913Z" fill="#433A59"/> <path opacity="0.1" d="M394.796 464.47C394.796 464.47 394.821 465.357 394.859 466.736C390.841 468.362 387.244 469.716 387.244 469.716L383.101 474.462C383.033 470.528 383.048 465.417 383.101 460.179L398.839 449.797C396.892 456.899 394.796 464.47 394.796 464.47Z" fill="black"/> <path opacity="0.1" d="M415.609 427.85V427.865L403.701 428.099C403.701 428.099 401.614 436.382 401.307 438.126C401.231 438.554 400.769 440.385 400.116 442.901C399.957 441.407 399.689 439.591 399.282 437.378C396.765 423.739 405.788 422.182 405.788 422.182L413.706 424.86L415.609 427.85Z" fill="black"/> <path d="M385.03 405.731L383.534 435.386C383.534 435.386 382.457 478.941 383.534 481.783C384.611 484.625 385.03 489.073 385.03 489.073C385.03 489.073 384.372 492.471 385.03 493.584C385.688 494.696 387.783 495.931 387.723 496.549C387.663 497.167 394.126 500.503 397.477 495.19C397.477 495.19 395.443 492.224 395.862 490.927C396.28 489.63 395.682 487.714 395.682 487.714C395.682 487.714 394.545 484.069 394.545 482.208C394.545 480.347 394.126 464.786 394.126 464.786C394.126 464.786 400.649 440.074 400.948 438.344C401.247 436.614 403.282 428.397 403.282 428.397L415.609 428.15C415.609 428.15 415.25 419.315 414.532 417.4C413.814 415.485 410.284 401.46 410.284 401.46L385.03 405.731Z" fill="#433A59"/> <path d="M363.51 434.021L362.391 434.531L362.346 436.292L395.887 436.981V436.288L363.51 434.021Z" fill="#7B728F"/> <path d="M401.617 344.39C396.943 353.845 399.846 355.822 400.308 356.066C399.319 355.607 386.452 349.578 388.145 348.048C389.245 347.051 390.187 342.714 390.74 339.607C391.069 337.751 391.26 336.334 391.26 336.334L404.762 338.803C403.453 340.907 402.413 342.76 401.617 344.39Z" fill="#FFC5D3"/> <path opacity="0.1" d="M420.536 349.56L420.292 349.967L415.608 354.101L414.617 352.06C416.06 351.008 420.389 349.168 420.389 349.168L420.536 349.56Z" fill="black"/> <path d="M426.41 359.249C425.898 360.994 417.263 359.249 417.263 359.249L416.368 357.877C416.368 357.877 416.278 357.703 416.127 357.418C415.574 356.374 414.236 353.9 413.684 353.462C412.98 352.901 421.231 350.158 421.231 350.158L423.759 355.519C424.382 355.927 424.957 356.401 425.473 356.932C426.113 357.608 426.642 358.453 426.41 359.249Z" fill="#E5E8EF"/> <path d="M411.671 360.012C411.671 360.012 416.663 363.875 417.412 363.596C418.161 363.317 430.268 371.336 430.268 371.336C430.268 371.336 431.641 376.478 425.962 376.784C425.962 376.784 413.917 376.295 413.418 374.581C412.919 372.867 411.671 360.012 411.671 360.012Z" fill="#5F5570"/> <path opacity="0.1" d="M398.436 351.146L392.927 356.785L400.652 405.403L403.692 403.649C403.692 403.649 411.543 407.095 412.176 403.9C412.81 400.704 412.635 388.111 412.635 388.111L411.607 365.361C411.607 365.361 407.997 357.404 407.997 357.153C407.997 356.903 402.792 353.018 402.792 353.018L400.336 351.139L398.436 351.146Z" fill="black"/> <path d="M398.436 351.146L392.927 356.682L400.652 404.417L403.692 402.694C403.692 402.694 411.543 406.077 412.176 402.94C412.81 399.803 412.635 387.439 412.635 387.439L411.607 365.102C411.607 365.102 407.997 357.29 407.997 357.044C407.997 356.798 402.792 352.984 402.792 352.984L400.336 351.139L398.436 351.146Z" fill="#E5E8EF"/> <path opacity="0.1" d="M398.424 351.219L396.883 354.256L398.424 355.825C398.424 355.825 403.949 366.589 402.857 372.973L404.013 393.983L407.738 397.516L410.693 394.224L409.28 375.135C409.28 375.135 405.49 359.393 401.508 354.496L400.351 350.158L398.424 351.219Z" fill="black"/> <path d="M398.424 351.197L396.883 354.171L398.424 355.707C398.424 355.707 403.949 366.247 402.857 372.498L404.013 393.07L407.738 396.53L410.693 393.306L409.28 374.615C409.28 374.615 405.49 359.2 401.508 354.406L400.351 350.158L398.424 351.197Z" fill="#BC8487"/> <path opacity="0.1" d="M404.763 338.653C403.474 340.62 402.459 342.352 401.665 343.876C400.83 344.109 399.963 344.227 399.092 344.227C396.174 344.227 394.493 342.316 392.841 340.287C392.463 339.827 391.221 339.934 390.952 339.393C391.275 337.659 391.464 336.334 391.464 336.334L404.763 338.653Z" fill="black"/> <path d="M408.71 334.858C408.71 337.091 407.913 339.25 406.463 340.947C405.013 342.644 403.005 343.768 400.801 344.116C398.596 344.464 396.34 344.014 394.437 342.847C392.535 341.68 391.111 339.872 390.423 337.748C389.735 335.625 389.827 333.325 390.683 331.264C391.539 329.202 393.102 327.514 395.092 326.502C397.082 325.491 399.367 325.223 401.537 325.747C403.706 326.27 405.618 327.551 406.927 329.359C408.086 330.958 408.71 332.883 408.71 334.858Z" fill="#FFC5D3"/> <path opacity="0.1" d="M396.532 355.085L389.082 345.989C389.082 345.989 388.393 345.709 390.718 343.246C390.718 343.246 399.257 349.982 399.787 351.126C400.317 352.27 396.532 355.085 396.532 355.085Z" fill="black"/> <path d="M396.532 355.085L389.082 345.989C389.082 345.989 388.393 345.709 390.718 343.246C390.718 343.246 399.257 349.982 399.787 351.126C400.317 352.27 396.532 355.085 396.532 355.085Z" fill="#E5E8EF"/> <path d="M415.611 414.283C415.611 414.283 414.191 413.403 414.191 412.364C414.191 411.325 413.481 396.658 413.481 396.658C413.481 396.658 412.439 387.904 411.35 380.947C410.711 376.848 410.055 373.369 409.591 372.68L409.572 372.65C408.33 371 408.566 362.933 400.814 351.139C400.918 351.212 403.59 353.148 405.548 354.121C405.947 354.328 406.365 354.491 406.796 354.61C408.571 355.038 414.371 357.36 414.193 361.088C414.016 364.816 414.607 373.371 414.607 373.371V390.906L415.611 414.283Z" fill="#5F5570"/> <path d="M415.616 357.53C415.616 357.53 418.307 364.892 417.923 366.732C417.538 368.573 424.136 375.808 424.136 375.808L430.414 371.492C430.414 371.492 428.044 366.796 428.364 365.399C428.684 364.003 426.698 361.02 426.698 361.02L426.826 356.075C426.826 356.075 425.673 358.22 415.616 357.53Z" fill="#5F5570"/> <path opacity="0.1" d="M407.716 329.279L402.851 329.451C402.376 329.448 401.903 329.504 401.443 329.617C399.705 330.118 398.903 331.849 398.839 333.405C398.775 334.961 397.815 336.705 395.954 336.841C395.768 336.871 395.578 336.831 395.424 336.731C395.306 336.613 395.227 336.466 395.198 336.307C394.931 335.4 394.519 334.536 393.975 333.746C393.207 333.875 392.638 334.559 392.438 335.273C392.239 335.988 392.293 336.741 392.295 337.481C392.297 338.422 392.2 339.361 392.006 340.284C391.212 339.32 390.631 338.216 390.297 337.039C389.962 335.862 389.881 334.635 390.057 333.428C390.234 332.221 390.665 331.059 391.325 330.01C391.986 328.96 392.862 328.044 393.904 327.315C394.945 326.586 396.131 326.057 397.393 325.761C398.654 325.465 399.966 325.406 401.252 325.589C402.538 325.772 403.772 326.192 404.883 326.825C405.994 327.459 406.96 328.293 407.723 329.279H407.716Z" fill="black"/> <path d="M400.764 329.243C401.204 329.126 401.659 329.068 402.115 329.071L407.782 328.857C408.612 328.825 409.538 328.75 410.096 328.125C410.296 327.887 410.443 327.607 410.528 327.306C410.674 326.825 410.717 326.318 410.653 325.818C410.59 325.319 410.423 324.839 410.162 324.41C409.506 323.352 408.356 322.737 407.261 322.17C406.241 321.617 405.194 321.119 404.124 320.676C400.149 319.146 395.747 319.21 391.817 320.855C391.429 321.006 391.061 321.206 390.722 321.45C390.248 321.861 389.845 322.349 389.528 322.894L387.663 325.743C387.406 326.09 387.208 326.479 387.076 326.893C386.725 328.245 387.813 329.597 387.7 330.989C387.636 331.681 387.275 332.316 387.209 333.008C387.12 333.902 387.523 334.751 387.919 335.565L391.196 342.265C391.725 340.703 391.993 339.062 391.989 337.41C391.989 336.641 391.925 335.859 392.127 335.117C392.328 334.375 392.864 333.665 393.601 333.531C394.124 334.351 394.521 335.248 394.777 336.19C394.804 336.355 394.88 336.509 394.993 336.631C395.141 336.735 395.324 336.776 395.502 336.745C397.297 336.603 398.204 334.811 398.27 333.177C398.337 331.544 399.096 329.764 400.764 329.243Z" fill="#8F7080"/> <path d="M362.346 434.838L364.617 434.021L398.846 436.369L395.079 436.981L362.346 434.838Z" fill="#7B728F"/> <path opacity="0.1" d="M362.346 434.838L364.617 434.021L398.846 436.369L395.079 436.981L362.346 434.838Z" fill="black"/> <path d="M400.813 469.531L395.701 469.114L393.907 468.969V444.046L394.381 438.26L394.485 436.972H399.759L400.813 469.531Z" fill="#7B728F"/> <path opacity="0.1" d="M398.84 468.544L395.189 468.14L393.907 467.999V443.832L394.245 438.223L394.319 436.972H398.086L398.84 468.544Z" fill="black"/> <path d="M373.189 434.666C373.189 434.666 375.458 430.272 376.409 430.135C377.361 429.999 379.108 430.135 379.108 430.135L378.953 431.409C378.953 431.409 376.623 431.571 375.887 435.008L373.189 434.666Z" fill="#7B728F"/> <path opacity="0.1" d="M373.189 434.666C373.189 434.666 375.458 430.272 376.409 430.135C377.361 429.999 379.108 430.135 379.108 430.135L378.953 431.409C378.953 431.409 376.623 431.571 375.887 435.008L373.189 434.666Z" fill="black"/> <path d="M383.202 430.075C383.202 430.075 388.646 432.8 387.935 435.994L384.979 435.829C384.979 435.829 383.557 431.066 382.436 430.817C381.315 430.568 383.202 430.075 383.202 430.075Z" fill="#7B728F"/> <path d="M404.756 380.69V380.869L404.636 401.257C404.636 401.257 401.582 418.397 400.743 419.07C399.904 419.744 381.515 417.907 381.515 417.907L373.189 360.551C373.129 350.757 379.898 351.063 379.898 351.063C380.796 349.594 385.109 348.431 385.109 348.431L387.505 346.044L387.582 345.934C387.741 345.691 387.946 345.484 388.186 345.324C388.679 345.033 388.993 345.417 389.173 345.796C389.254 345.975 389.316 346.161 389.36 346.352C399.066 353.627 404.756 380.69 404.756 380.69Z" fill="#5F5570"/> <path opacity="0.1" d="M404.76 381.547V381.725C401.736 376.098 390.083 354.778 386.895 353.716L388.123 352.859C388.123 352.859 388.941 352.37 387.437 351.881C387.437 351.881 385.091 352.187 385.031 349.312L387.514 346.816L388.12 346.207L389.111 346.679C389.193 346.857 389.256 347.043 389.299 347.234C399.046 354.504 404.76 381.547 404.76 381.547Z" fill="black"/> <path d="M404.76 381.547V381.725C401.736 376.098 390.083 354.778 386.895 353.716L388.123 352.859C388.123 352.859 388.941 352.37 387.437 351.881C387.437 351.881 385.091 352.187 385.031 349.312L387.514 346.816L388.12 346.207L389.111 346.679C389.193 346.857 389.256 347.043 389.299 347.234C399.046 354.504 404.76 381.547 404.76 381.547Z" fill="#433A59"/> <path opacity="0.1" d="M409.692 372.844L409.673 372.815C408.416 371.152 408.655 363.024 400.814 351.139C400.919 351.212 403.622 353.163 405.603 354.144L405.049 356.021L406.247 356.678L409.692 372.844Z" fill="black"/> <path d="M409.692 371.858L409.673 371.83C408.416 370.242 408.655 362.483 400.814 351.139C400.919 351.209 403.622 353.071 405.603 354.007L405.049 355.799L406.247 356.427L409.692 371.858Z" fill="#433A59"/> <path opacity="0.1" d="M400.337 349.168L399.829 351.531C399.829 351.531 400.2 353.896 402.429 354.101L402.788 352.974C402.788 352.974 400.384 351.277 400.337 349.168Z" fill="black"/> <path d="M400.337 349.168L399.829 351.058C399.829 351.058 400.2 352.951 402.429 353.114L402.788 352.213C402.788 352.213 400.384 350.855 400.337 349.168Z" fill="#E5E8EF"/> <path opacity="0.1" d="M396.867 436.972L395.464 469.531L393.907 469.383V443.868L394.318 437.945L396.867 436.972Z" fill="black"/> <path d="M362.357 449.384L361.356 466.767L395.379 469.531L396.87 436.972L362.357 449.384Z" fill="#7B728F"/> <path opacity="0.1" d="M361.356 451.184L362.022 435.006L396.87 436.65L395.211 453.752L361.356 451.184Z" fill="black"/> <path d="M361.356 450.333L362.022 435.006L396.87 436.563L395.211 452.766L361.356 450.333Z" fill="#7B728F"/> <path d="M380.095 449.797H376.149V454.73H380.095V449.797Z" fill="#C3BBC8"/> <path d="M376.364 419.216L375.698 420.749C375.698 420.749 374.299 429.151 376.031 430.173C377.764 431.195 382.894 431.252 383.161 430.741C383.427 430.23 385.293 424.439 385.293 424.439C385.293 424.439 386.959 428.697 387.825 428.356C388.691 428.016 385.826 419.923 385.826 419.923L376.364 419.216Z" fill="#FFC5D3"/> <path opacity="0.1" d="M376.149 411.049V420.798C376.149 420.798 382.341 422.161 385.028 419.805C385.028 419.805 382.516 410.367 383.451 407.981C384.385 405.595 376.149 411.049 376.149 411.049Z" fill="black"/> <path d="M376.149 411.049V420.798C376.149 420.798 382.341 422.161 385.028 419.805C385.028 419.805 382.516 410.367 383.451 407.981C384.385 405.595 376.149 411.049 376.149 411.049Z" fill="#E5E8EF"/> <path opacity="0.1" d="M374.863 359.769L372.964 360.694C372.964 360.694 372.625 364.392 372.421 364.885C372.218 365.378 372.421 370.371 372.421 370.371L372.329 380.479C372.329 380.479 372.036 385.842 372.329 387.752C372.622 389.663 372.95 396.936 372.95 396.936C372.95 396.936 374.784 404.024 374.106 406.551C373.428 409.079 374.174 414.749 375.326 414.256C376.479 413.763 387.127 411.852 387.669 411.482C388.212 411.113 387.941 407.661 387.669 407.229C387.398 406.798 385.77 400.943 385.906 399.587C386.042 398.231 385.431 386.335 385.431 386.335C385.431 386.335 386.449 373.637 386.855 370.679C387.262 367.72 386.042 359.03 384.957 358.906C383.871 358.783 380.695 352.065 374.863 359.769Z" fill="black"/> <path d="M374.53 359.769L372.868 360.694C372.868 360.694 372.571 364.392 372.393 364.885C372.215 365.378 372.393 370.371 372.393 370.371L372.313 380.479C372.313 380.479 372.056 385.842 372.313 387.752C372.569 389.663 372.856 396.936 372.856 396.936C372.856 396.936 374.461 404.024 373.867 406.551C373.274 409.079 373.927 414.749 374.936 414.256C375.944 413.763 385.261 411.852 385.735 411.482C386.21 411.113 385.973 407.661 385.735 407.229C385.498 406.798 384.074 400.943 384.193 399.587C384.311 398.231 383.777 386.335 383.777 386.335C383.777 386.335 384.667 373.637 385.023 370.679C385.379 367.72 384.311 359.03 383.362 358.906C382.412 358.783 379.633 352.065 374.53 359.769Z" fill="#5F5570"/> <g opacity="0.1"> <path opacity="0.1" d="M393.351 332.495C392.612 332.628 392.066 333.33 391.874 334.063C391.682 334.797 391.734 335.569 391.736 336.33C391.741 337.963 391.473 339.585 390.944 341.129L387.659 334.506C387.595 334.376 387.528 334.24 387.464 334.105C387.616 334.561 387.805 335.004 388.028 335.429L391.313 342.052C391.842 340.508 392.11 338.886 392.105 337.253C392.105 336.492 392.044 335.72 392.243 334.986C392.442 334.253 392.981 333.551 393.72 333.418C393.958 333.792 394.171 334.181 394.357 334.583C394.107 333.849 393.769 333.148 393.351 332.495Z" fill="black"/> <path opacity="0.1" d="M410.368 324.51C410.513 325.116 410.492 325.749 410.309 326.344C410.224 326.642 410.075 326.918 409.874 327.154C409.315 327.772 408.397 327.845 407.556 327.877L401.881 328.089C401.423 328.086 400.967 328.143 400.525 328.259C398.856 328.773 398.084 330.55 398.022 332.148C397.961 333.745 397.038 335.534 395.249 335.675C395.071 335.705 394.888 335.664 394.739 335.562C394.796 335.722 394.85 335.884 394.897 336.054C394.922 336.217 394.997 336.369 395.111 336.489C395.259 336.592 395.442 336.633 395.62 336.603C397.422 336.462 398.327 334.69 398.394 333.076C398.46 331.461 399.228 329.701 400.896 329.187C401.339 329.071 401.795 329.014 402.252 329.017L407.927 328.805C408.759 328.773 409.687 328.7 410.245 328.082C410.447 327.846 410.595 327.57 410.681 327.272C410.82 326.815 410.865 326.334 410.811 325.859C410.757 325.384 410.607 324.925 410.368 324.51Z" fill="black"/> </g> <path opacity="0.1" d="M400.814 426.128C400.814 426.128 403.075 425.087 403.948 425.145C404.82 425.203 412.652 434.022 412.652 434.022L400.814 426.128Z" fill="black"/> <path opacity="0.1" d="M379.11 361.997C379.11 361.997 375.059 363.626 375.166 364.752C375.274 365.878 379.11 361.997 379.11 361.997Z" fill="black"/> <path opacity="0.1" d="M378.121 366.924C378.121 366.924 372.039 371.694 373.383 371.853C374.727 372.013 378.121 366.924 378.121 366.924Z" fill="black"/> <path opacity="0.1" d="M390.948 375.802C390.948 375.802 391.228 386.314 388.986 387.641L390.948 375.802Z" fill="black"/> <path opacity="0.1" d="M375.164 406.388C375.164 406.388 378.311 405.195 379.033 405.433C379.755 405.671 375.164 406.388 375.164 406.388Z" fill="black"/> <path opacity="0.1" d="M419.552 365.938C419.552 365.938 422.056 371.858 423.498 371.858L419.552 365.938Z" fill="black"/> <path opacity="0.1" d="M387.991 489.758C387.991 489.758 391.395 488.648 391.898 489.758C392.4 490.868 387.991 489.758 387.991 489.758Z" fill="black"/> <path opacity="0.1" d="M373.487 472.494C373.487 472.494 372.664 473.963 373.752 474.411C374.84 474.858 373.487 472.494 373.487 472.494Z" fill="black"/> <path opacity="0.1" d="M402.794 449.797C402.794 449.797 405.346 453.628 406.551 453.741C407.756 453.853 402.794 449.797 402.794 449.797Z" fill="black"/> <path d="M429.038 104.924H444.094L444.106 107.38H443.952C441.258 107.38 442.085 108.797 442.295 109.328L453.543 136.33L457.869 127.466L450.327 109.556C450.327 109.556 449.037 107.385 446.049 107.385L446.037 104.93H462.316V107.385C462.316 107.385 460.54 107.549 459.563 108.861L462.97 117.07L463.022 116.954L466.981 108.874C466.981 108.874 467.299 107.38 464.249 107.38V104.924H475.494V107.38C475.494 107.38 472.394 107.317 470.931 108.874L464.789 121.423L470.84 135.964L484.085 108.841C484.085 108.841 484.821 107.38 477.431 107.38V104.924H490.354L490.347 107.38C490.347 107.38 488.783 107.366 488.072 108.827C474.347 136.939 469.563 146.671 469.563 146.671H465.986L459.712 131.805L452.461 146.671H448.521L433.133 110.164C433.133 110.164 432.319 107.418 429.038 107.418V104.924Z" fill="#4154AF"/> <path d="M487.478 128.081C488.999 127.559 489.649 125.438 488.93 123.345C488.212 121.253 486.396 119.98 484.875 120.502C483.354 121.025 482.703 123.145 483.422 125.238C484.141 127.331 485.957 128.604 487.478 128.081Z" fill="#F9AE08"/> <path d="M482.584 136.388C482.389 136.578 482.062 136.484 481.996 136.22C481.974 136.136 481.985 136.048 482.025 135.971C482.929 134.216 484.853 131.358 488.626 128.689C488.692 128.623 494.12 125.829 494.446 133.179C494.509 134.822 494.446 147.029 494.446 147.809C494.446 147.833 494.432 147.854 494.409 147.863L484.969 151.649C484.926 151.666 484.88 151.63 484.887 151.584C484.888 151.579 484.889 151.575 484.891 151.57C485.458 150.214 490.158 138.667 488.497 133.475C488.559 133.541 487.94 131.241 482.584 136.388Z" fill="#4154AF"/> </g> <defs> <linearGradient id="paint0_linear_437_3271" x1="511.868" y1="509.995" x2="511.868" y2="311.67" gradientUnits="userSpaceOnUse"> <stop stop-color="#808080" stop-opacity="0.25"/> <stop offset="0.54" stop-color="#808080" stop-opacity="0.12"/> <stop offset="1" stop-color="#808080" stop-opacity="0.1"/> </linearGradient> <linearGradient id="paint1_linear_437_3271" x1="395.886" y1="507.033" x2="395.886" y2="319.567" gradientUnits="userSpaceOnUse"> <stop stop-color="#808080" stop-opacity="0.25"/> <stop offset="0.54" stop-color="#808080" stop-opacity="0.12"/> <stop offset="1" stop-color="#808080" stop-opacity="0.1"/> </linearGradient> <clipPath id="clip0_437_3271"> <rect width="838" height="554" fill="white" transform="matrix(-1 0 0 1 838 0.499512)"/> </clipPath> </defs> </svg>