<svg width="192" height="192" viewBox="0 0 192 192" fill="none" xmlns="http://www.w3.org/2000/svg">
<rect width="192" height="192" fill="#050D1A"/>
<path d="M57 59.0272C57 58.4601 57.4597 58.0004 58.0268 58.0004H77.4721C78.0392 58.0004 78.4989 58.4601 78.4989 59.0272V85.7409H58.0268C57.4597 85.7409 57 85.2812 57 84.7141V59.0272Z" fill="#FAFDFF"/>
<path d="M85.0469 59.0268C85.0469 58.4597 85.5066 58 86.0737 58H106.546V132.973C106.546 133.54 106.086 134 105.519 134H86.0737C85.5066 134 85.0469 133.54 85.0469 132.973V59.0268Z" fill="#FAFDFF"/>
<path fill-rule="evenodd" clip-rule="evenodd" d="M113.018 99.6959C113.216 99.7014 113.414 99.7042 113.614 99.7042C125.13 99.7042 134.466 90.3684 134.466 78.8521C134.466 67.3357 125.13 57.9999 113.614 57.9999C113.414 57.9999 113.216 58.0027 113.018 58.0082V99.6959Z" fill="#FAFDFF"/>
<path fill-rule="evenodd" clip-rule="evenodd" d="M78.4549 92.1034H57V112.881H57.0017C57.001 112.952 57.0006 113.023 57.0006 113.095C57.0006 124.611 66.3365 133.947 77.8528 133.947C78.051 133.947 78.2485 133.944 78.4453 133.939V112.881H78.4549V92.1034Z" fill="#FAFDFF"/>
</svg>
